<?xml version="1.0" standalone="no"?>
<!DOCTYPE svg PUBLIC "-//W3C//DTD SVG 1.1//EN" "http://www.w3.org/Graphics/SVG/1.1/DTD/svg11.dtd" >
<svg xmlns="http://www.w3.org/2000/svg">
<metadata></metadata>
<defs>
<font id="informapronormal" horiz-adv-x="757" >
<font-face units-per-em="2048" ascent="1638" descent="-410" />
<missing-glyph horiz-adv-x="598" />
<glyph horiz-adv-x="2048" />
<glyph horiz-adv-x="2048" />
<glyph unicode="&#xd;" horiz-adv-x="2048" />
<glyph unicode=" "  horiz-adv-x="598" />
<glyph unicode="&#x09;" horiz-adv-x="598" />
<glyph unicode="&#xa0;" horiz-adv-x="598" />
<glyph unicode="!" horiz-adv-x="694" d="M227 100q0 50 35 85.5t86 35.5q49 0 84 -35.5t35 -85.5q0 -51 -34.5 -85.5t-84.5 -34.5q-51 0 -86 34.5t-35 85.5zM244 1475h207l-43 -1067h-119z" />
<glyph unicode="&#x22;" horiz-adv-x="645" d="M72 1473h188l-35 -508h-116zM387 1473h186l-34 -508h-117z" />
<glyph unicode="#" horiz-adv-x="1220" d="M76 369v143h266l18 305h-284v144h295l22 370h144l-23 -370h264l23 370h143l-22 -370h237v-144h-246l-18 -305h264v-143h-274l-23 -369h-143l22 369h-264l-22 -369h-144l23 369h-258zM485 512h267l18 305h-266z" />
<glyph unicode="$" horiz-adv-x="970" d="M31 1102q0 151 100.5 251t269.5 132v213h136v-203q193 -3 323 -57l-31 -156q-146 61 -292 64v-517q53 -25 86.5 -41.5t81 -44t78 -50t64.5 -55t53.5 -65t32.5 -73.5t13 -86q0 -178 -111 -285.5t-294 -138.5v-236h-135v226q-102 1 -199 22t-164 53l39 158q68 -35 155 -59 t169 -25v573q-66 32 -111.5 57t-99.5 64t-86.5 77t-55 90.5t-22.5 111.5zM199 1135q0 -76 52.5 -132.5t149.5 -109.5v442q-96 -19 -149 -69t-53 -131zM541 137q107 22 172 82.5t65 163.5q0 79 -61 138t-176 118v-502z" />
<glyph unicode="%" horiz-adv-x="1949" d="M123 1075q0 61 11.5 117.5t39 110.5t69 94t106 64t145.5 24q85 0 153 -32.5t110 -88t63.5 -124.5t21.5 -146q0 -112 -41.5 -202.5t-125 -146t-196.5 -55.5q-162 0 -259 109.5t-97 275.5zM287 1094q0 -73 18.5 -134.5t67.5 -106t123 -44.5q59 0 102 42t61.5 100.5 t18.5 123.5q0 82 -20.5 145.5t-67.5 104.5t-117 41q-92 0 -139 -79.5t-47 -192.5zM502 14l809 1522l127 -72l-805 -1519zM1108 375q0 61 11.5 117.5t38.5 110.5t68.5 93.5t106.5 63.5t146 24q85 0 153 -32.5t109 -88t62.5 -124.5t21.5 -146q0 -112 -41.5 -202.5 t-124.5 -145.5t-195 -55q-162 0 -259 109.5t-97 275.5zM1272 393q0 -54 11 -102t34.5 -90t65.5 -67t98 -25q59 0 102 42t61.5 100.5t18.5 123.5q0 82 -20.5 145.5t-67.5 104.5t-117 41q-61 0 -104.5 -40.5t-62.5 -100.5t-19 -132z" />
<glyph unicode="&#x26;" horiz-adv-x="1413" d="M111 371q0 153 88 268t247 145q-122 41 -196 122t-74 200q0 169 139.5 279t362.5 110q125 0 237 -35l-30 -160q-94 39 -236 39q-53 0 -103.5 -12t-95.5 -36t-72.5 -66.5t-27.5 -96.5q0 -69 36 -122t97 -84.5t134.5 -47.5t154.5 -16h168v172l162 33v-205h241v-156h-241 v-651q-95 -32 -225.5 -51.5t-260.5 -19.5q-101 0 -188.5 21.5t-160 66t-114.5 122t-42 181.5zM297 391q0 -127 96.5 -195.5t259.5 -68.5q171 0 287 45v530h-176q-224 0 -345.5 -78t-121.5 -233z" />
<glyph unicode="'" horiz-adv-x="331" d="M72 1483h188l-35 -510h-116z" />
<glyph unicode="(" horiz-adv-x="655" d="M166 612q0 274 74 512t243 469l113 -22q-258 -426 -258 -940q0 -438 250 -930l-121 -25q-95 155 -156.5 285.5t-103 301t-41.5 349.5z" />
<glyph unicode=")" horiz-adv-x="655" d="M59 -301q258 419 258 938q0 440 -249 934l118 22q96 -154 158 -285.5t103.5 -301t41.5 -347.5q0 -274 -75 -513.5t-242 -469.5z" />
<glyph unicode="*" horiz-adv-x="806" d="M72 1186l53 164l223 -111l-24 256h165l-34 -254l229 109l49 -158l-248 -45l174 -189l-135 -96l-121 228l-122 -230l-134 96l179 189z" />
<glyph unicode="+" horiz-adv-x="1249" d="M125 553v143h428v428h143v-428h430v-143h-430v-428h-143v428h-428z" />
<glyph unicode="," horiz-adv-x="577" d="M127 -305l115 504h184l-172 -504h-127z" />
<glyph unicode="-" d="M113 516v139h530v-139h-530z" />
<glyph unicode="." horiz-adv-x="616" d="M188 98q0 51 34.5 86t84.5 35q51 0 86 -35t35 -86q0 -50 -35 -84t-86 -34q-50 0 -84.5 34.5t-34.5 83.5z" />
<glyph unicode="/" horiz-adv-x="962" d="M29 -262l755 1980l142 -51l-758 -1976z" />
<glyph unicode="0" horiz-adv-x="1255" d="M131 705q0 84 6 160t21.5 157.5t40 149t64.5 128.5t91.5 103t124 67t160.5 25q78 0 145 -23.5t116 -64t88 -98t64.5 -123.5t42.5 -142.5t24 -151.5t7 -155q0 -88 -10 -171.5t-31.5 -171.5t-60.5 -160.5t-93.5 -130.5t-134.5 -90.5t-178 -32.5q-128 0 -224.5 60 t-152.5 163.5t-83 229.5t-27 272zM303 737q0 -91 10.5 -176t36 -165.5t63 -140.5t96 -96t130.5 -36q74 0 131 37t91 94.5t55.5 137t29.5 155.5t8 158q0 95 -9 182t-33 173.5t-60.5 149.5t-96.5 102.5t-137 39.5q-315 0 -315 -615z" />
<glyph unicode="1" horiz-adv-x="839" d="M84 1386l477 99h49v-1485h-168v1315l-338 -72z" />
<glyph unicode="2" horiz-adv-x="1083" d="M76 1411q180 84 370 84q218 0 335.5 -105.5t117.5 -291.5q0 -69 -22.5 -145.5t-53.5 -142t-87.5 -146.5t-100.5 -136.5t-118 -136t-113.5 -120.5t-113.5 -114l-20 -20h699v-137h-877v178q635 596 635 889q0 126 -77 205.5t-228 79.5t-303 -76z" />
<glyph unicode="3" horiz-adv-x="1132" d="M104 39l37 145q148 -63 344 -63q142 0 236 84.5t94 212.5q0 138 -114 208t-330 70h-78v138h108q148 0 254.5 85t106.5 207q0 105 -83 165.5t-222 60.5q-146 0 -293 -70l-29 139q151 74 350 74q207 0 328 -93.5t121 -242.5q0 -141 -69.5 -234.5t-180.5 -129.5 q134 -33 219.5 -122.5t85.5 -221.5q0 -213 -147 -342t-383 -129q-217 0 -355 59z" />
<glyph unicode="4" horiz-adv-x="1230" d="M74 627l653 848h184v-871h234v-137h-234v-467h-161v467h-660zM225 604h525v682z" />
<glyph unicode="5" horiz-adv-x="1064" d="M86 47l43 148q144 -72 336 -72q155 0 251.5 88t96.5 235q0 152 -98.5 237t-268.5 85q-84 0 -210 -37l-91 25v719h748v-138h-592v-448q75 20 180 20q243 0 373.5 -119t130.5 -313q0 -229 -152.5 -363t-398.5 -134q-201 0 -348 67z" />
<glyph unicode="6" horiz-adv-x="1224" d="M131 573q0 126 13 236.5t40.5 216.5t75 189.5t113.5 147t159.5 98t208.5 34.5q167 0 267 -49l-33 -141q-102 47 -262 47q-87 0 -155.5 -35t-114 -97.5t-74.5 -137t-45 -164.5q-3 -17 -13.5 -66t-13.5 -70l6 -2q31 52 70 84q110 94 291 94q201 0 320.5 -132.5 t119.5 -338.5q0 -225 -140.5 -366t-361.5 -141q-98 0 -177.5 32t-133.5 87.5t-90.5 131.5t-53 161.5t-16.5 180.5zM305 487q0 -154 86 -259t234 -105q133 0 220 94.5t87 241.5q0 160 -78 258t-219 98q-140 0 -235 -96t-95 -232z" />
<glyph unicode="7" horiz-adv-x="1007" d="M70 1337v138h848v-70l-457 -1405h-164l436 1337h-663z" />
<glyph unicode="8" horiz-adv-x="1236" d="M129 356q0 266 307 410q-59 34 -102 66.5t-81.5 75t-58.5 96t-20 116.5q0 164 132 269.5t329 105.5q113 0 209 -38t157.5 -118t61.5 -188q0 -71 -23 -130.5t-66.5 -105t-92.5 -78.5t-113 -63q59 -29 103 -54.5t91 -62.5t77 -75.5t49.5 -89.5t19.5 -109q0 -124 -68.5 -217 t-180.5 -139.5t-249 -46.5q-201 0 -341 104t-140 272zM299 389q0 -86 49.5 -148.5t124 -91t162.5 -28.5q132 0 217.5 58.5t85.5 172.5q0 34 -11 66t-27 57.5t-46.5 52.5t-55 45.5t-67.5 42.5t-70 38t-75 38q-133 -60 -210 -132.5t-77 -170.5zM342 1151q0 -54 21 -99 t65 -82.5t86.5 -63.5t108.5 -60q60 25 105.5 50.5t85 58.5t60.5 74.5t21 88.5q0 103 -76 169.5t-209 66.5q-106 0 -187 -56t-81 -147z" />
<glyph unicode="9" horiz-adv-x="1224" d="M119 985q0 226 141 368t361 142q122 0 215 -48.5t148 -132.5t82.5 -188.5t27.5 -224.5q0 -152 -18 -282t-62.5 -250t-112.5 -204.5t-174.5 -134.5t-243.5 -50q-164 0 -266 47l29 149q120 -53 266 -53q70 0 128.5 23.5t100.5 63.5t74.5 96.5t52 118t31.5 132.5 q12 80 27 135l-4 2q-25 -42 -72 -86q-109 -92 -291 -92q-203 0 -321.5 128.5t-118.5 340.5zM291 1016q0 -153 82 -256t215 -103q132 0 232 98t100 230q0 102 -37.5 184t-114 132.5t-180.5 50.5q-126 0 -211.5 -94.5t-85.5 -241.5z" />
<glyph unicode=":" horiz-adv-x="616" d="M188 98q0 51 34.5 86t84.5 35q51 0 86 -35t35 -86q0 -50 -35 -84t-86 -34q-50 0 -84.5 34.5t-34.5 83.5zM188 883q0 51 34.5 86t84.5 35q51 0 86 -35t35 -86q0 -50 -35 -84.5t-86 -34.5q-49 0 -84 35t-35 84z" />
<glyph unicode=";" horiz-adv-x="612" d="M127 -305l115 504h184l-172 -504h-127zM227 883q0 51 34.5 86t84.5 35q51 0 86 -35t35 -86q0 -50 -35 -84.5t-86 -34.5q-50 0 -84.5 35t-34.5 84z" />
<glyph unicode="&#x3c;" horiz-adv-x="1230" d="M156 582v77l815 474l80 -119l-666 -389l664 -412l-86 -133z" />
<glyph unicode="=" horiz-adv-x="1208" d="M125 309v142h958v-142h-958zM125 737v144h958v-144h-958z" />
<glyph unicode="&#x3e;" horiz-adv-x="1230" d="M156 199l663 391l-663 411l88 132l807 -502v-76l-815 -475z" />
<glyph unicode="?" horiz-adv-x="1134" d="M186 1440q147 55 308 55q204 0 319 -88t115 -242q0 -73 -22.5 -137.5t-59 -113t-80 -94t-87 -89.5t-80 -89.5t-59 -104.5t-22.5 -125q0 -31 4 -47h-143q-6 41 -6 77q0 65 20 124t52.5 105.5t71.5 90.5t78.5 86.5t72 85.5t53 95t20.5 108q0 100 -69.5 151t-196.5 51 t-260 -53zM338 100q0 50 35 85.5t84 35.5q51 0 86 -35.5t35 -85.5q0 -51 -35 -85.5t-86 -34.5q-50 0 -84.5 34.5t-34.5 85.5z" />
<glyph unicode="@" horiz-adv-x="2293" d="M166 459q0 213 78 397t213.5 313t326.5 202t410 73q189 0 353.5 -57.5t283 -159.5t186.5 -250.5t68 -323.5q0 -180 -65.5 -332.5t-195 -248t-298.5 -95.5q-86 0 -135.5 37.5t-49.5 102.5v45q-17 -35 -51 -66q-58 -55 -133 -85.5t-156 -30.5q-134 0 -215 70t-81 196 q0 65 25.5 119t71 93t104.5 68t130.5 47t145 27t151.5 10v64q0 102 -48.5 145t-158.5 43q-159 0 -319 -80l-21 146q173 71 357 71q182 0 267 -69.5t85 -222.5v-508q0 -47 16 -64.5t48 -17.5q105 0 187.5 74.5t124.5 189.5t42 244q0 149 -52 274.5t-147 214.5t-234 139 t-306 50q-172 0 -324 -57t-266 -160t-180 -258.5t-66 -342.5q0 -180 54.5 -328t160 -255.5t269 -166.5t372.5 -59q181 0 342 68l39 -137q-178 -74 -401 -74q-200 0 -365.5 46.5t-283.5 130t-199.5 199.5t-120.5 254.5t-39 295.5zM874 268q0 -76 44.5 -114.5t117.5 -38.5 q115 0 206 95.5t91 223.5v51q-95 0 -174.5 -12t-145 -36.5t-102.5 -67.5t-37 -101z" />
<glyph unicode="A" horiz-adv-x="1402" d="M33 0l612 1475h127l598 -1475h-186l-203 514h-571l-207 -514h-170zM473 666h447l-222 561z" />
<glyph unicode="B" horiz-adv-x="1245" d="M207 12v1442q175 41 381 41q99 0 183 -19.5t151.5 -59t106 -107t38.5 -156.5q0 -124 -71 -220t-179 -132v-6q133 -25 217 -120.5t84 -228.5q0 -216 -154.5 -341t-426.5 -125q-177 0 -330 32zM379 150q86 -21 190 -21q164 0 265.5 75t101.5 212q0 122 -95.5 197t-244.5 75 q-143 0 -217 -2v-536zM379 831h117q93 0 180.5 32.5t148 100.5t60.5 156q0 119 -91 172.5t-245 53.5q-77 0 -170 -19v-496z" />
<glyph unicode="C" horiz-adv-x="1300" d="M135 709q0 131 32 249.5t94 216.5t149.5 169.5t203.5 111t250 39.5q193 0 320 -65l-35 -154q-56 27 -141 46t-164 19q-123 0 -224 -50t-166 -133t-100 -188t-35 -218q0 -127 33 -238t96 -196.5t163 -135t225 -49.5q86 0 174 28t159 75l60 -127q-74 -61 -184.5 -95 t-235.5 -34q-208 0 -363 99.5t-233 263t-78 366.5z" />
<glyph unicode="D" horiz-adv-x="1427" d="M207 20v1434q182 41 397 41q212 0 371.5 -91.5t244.5 -256t85 -379.5q0 -226 -84 -403t-251 -281t-395 -104q-92 0 -198.5 10.5t-169.5 29.5zM381 156q80 -23 223 -23q228 0 371 166t143 428q0 127 -33 236.5t-97.5 194.5t-169.5 134t-240 49q-80 0 -197 -22v-1163z" />
<glyph unicode="E" horiz-adv-x="1155" d="M207 0v1475h825v-152h-651v-496h633v-149h-633v-526h661v-152h-835z" />
<glyph unicode="F" horiz-adv-x="1083" d="M207 0v1475h797v-152h-623v-516h592v-152h-592v-655h-174z" />
<glyph unicode="G" horiz-adv-x="1429" d="M135 723q0 218 97 394t271.5 277t391.5 101q176 0 328 -61l-37 -158q-146 65 -314 65q-152 0 -278.5 -75t-200.5 -209.5t-74 -300.5q0 -106 19.5 -197t63 -170t110 -134.5t165 -87.5t222.5 -32t191 39v492h-287v151h461v-749q-66 -38 -171.5 -63t-218.5 -25 q-153 0 -277 38t-209 105t-142.5 161.5t-84 204t-26.5 234.5z" />
<glyph unicode="H" horiz-adv-x="1476" d="M207 0v1475h174v-641h713v641h174v-1475h-174v682h-713v-682h-174z" />
<glyph unicode="I" horiz-adv-x="585" d="M207 0v1475h174v-1475h-174z" />
<glyph unicode="J" horiz-adv-x="819" d="M29 33l34 149q103 -49 205 -49q103 0 146 80.5t43 247.5v1014h174v-977q0 -132 -18.5 -224.5t-63 -160.5t-121.5 -100.5t-190 -32.5q-49 0 -109.5 15.5t-99.5 37.5z" />
<glyph unicode="K" horiz-adv-x="1257" d="M207 0v1475h174v-635l577 635h213l-630 -680l694 -795h-227l-627 727v-727h-174z" />
<glyph unicode="L" horiz-adv-x="1062" d="M207 0v1475h172v-1323h616v-152h-788z" />
<glyph unicode="M" horiz-adv-x="1851" d="M154 0l133 1475h196l447 -1153l436 1153h190l134 -1475h-166l-103 1225l-432 -1149h-131l-448 1155l-101 -1231h-155z" />
<glyph unicode="N" horiz-adv-x="1470" d="M207 0v1475h166l737 -1184v1184h156v-1475h-164l-742 1194v-1194h-153z" />
<glyph unicode="O" horiz-adv-x="1544" d="M135 729q0 215 75 387t224 275.5t348 103.5q142 0 260 -56t198.5 -154.5t124.5 -236t44 -298.5q0 -151 -43 -288.5t-122.5 -245.5t-204 -172t-277.5 -64q-132 0 -239.5 43.5t-178.5 116t-119 170.5t-69 202.5t-21 216.5zM319 750q0 -89 15.5 -174t51 -166t87.5 -142 t131.5 -98t177.5 -37q87 0 160 33t124.5 89.5t88 132.5t53.5 162.5t17 178.5q0 175 -54.5 313t-160.5 218.5t-248 80.5q-134 0 -236 -81t-154.5 -214.5t-52.5 -295.5z" />
<glyph unicode="P" horiz-adv-x="1173" d="M207 0v1456q220 39 391 39q230 0 363 -113.5t133 -294.5q0 -125 -49.5 -221.5t-137.5 -154.5t-201.5 -87.5t-248.5 -29.5h-76v-594h-174zM381 743h106q188 0 305 79t117 229q0 140 -83.5 215t-250.5 75q-108 0 -194 -22v-576z" />
<glyph unicode="Q" horiz-adv-x="1544" d="M135 729q0 224 81.5 398.5t229 271t336.5 96.5q193 0 336 -95t217 -263t74 -387q0 -196 -68 -362t-188.5 -270.5t-271.5 -125.5q133 -42 366 -301l-194 -51l-334 342q-116 7 -213 52t-164.5 116t-115 164.5t-69.5 198t-22 216.5zM319 750q0 -116 30.5 -225t87 -197.5 t146 -141.5t199.5 -53q133 0 235.5 83.5t155 218t52.5 294.5q0 174 -52 310.5t-158.5 219t-252.5 82.5q-127 0 -229 -80t-158 -215t-56 -296z" />
<glyph unicode="R" horiz-adv-x="1243" d="M207 0v1458q208 37 383 37q221 0 351 -91t130 -274q0 -141 -89.5 -247.5t-195.5 -128.5q86 -19 134 -81.5t84 -183.5l151 -489h-178l-121 391q-35 110 -73.5 166.5t-104 83.5t-176.5 27h-125v-668h-170zM377 815h162q158 0 255 83.5t97 207.5q0 115 -85 176t-237 61 q-94 0 -192 -20v-508z" />
<glyph unicode="S" horiz-adv-x="1101" d="M109 55l38 160q176 -84 338 -84q93 0 164.5 24t118.5 83t47 147q0 61 -38 112.5t-98.5 91t-134 77.5t-147 80.5t-134 91t-98.5 118.5t-38 154q0 181 131.5 283t347.5 102q187 0 318 -57l-35 -158q-144 63 -299 63q-131 0 -208 -50.5t-77 -153.5q0 -61 38 -113t98.5 -91.5 t134 -77.5t147 -80.5t134 -90.5t98.5 -117.5t38 -152.5q0 -144 -70.5 -244t-186.5 -146t-267 -46q-206 0 -360 75z" />
<glyph unicode="T" horiz-adv-x="1179" d="M47 1323v152h1088v-152h-457v-1323h-174v1323h-457z" />
<glyph unicode="U" horiz-adv-x="1384" d="M197 489v986h174v-936q0 -201 79.5 -303.5t264.5 -102.5q156 0 251 100t95 281v961h160v-936q0 -282 -141.5 -420.5t-387.5 -138.5q-495 0 -495 509z" />
<glyph unicode="V" horiz-adv-x="1349" d="M33 1475h184l442 -1225l486 1225h172l-598 -1475h-146z" />
<glyph unicode="W" horiz-adv-x="1908" d="M31 1475h180l356 -1178l361 1178h71l353 -1178l364 1178h162l-465 -1475h-135l-324 1067l-327 -1067h-142z" />
<glyph unicode="X" horiz-adv-x="1280" d="M33 0l506 786l-445 689h201l354 -549l350 549h187l-447 -691l508 -784h-198l-420 645l-410 -645h-186z" />
<glyph unicode="Y" horiz-adv-x="1187" d="M33 1475h200l371 -648l371 648h178l-471 -824v-651h-174v641z" />
<glyph unicode="Z" horiz-adv-x="1140" d="M92 0v49l678 1274h-647v152h887v-58l-670 -1265h707v-152h-955z" />
<glyph unicode="[" horiz-adv-x="632" d="M176 -274v1859h385v-143h-229v-1573h229v-143h-385z" />
<glyph unicode="\" horiz-adv-x="966" d="M18 1661l148 57l756 -1980l-146 -53z" />
<glyph unicode="]" horiz-adv-x="632" d="M72 -131h229v1573h-229v143h385v-1859h-385v143z" />
<glyph unicode="^" horiz-adv-x="1210" d="M145 772l402 703h119l397 -703h-160l-301 543l-299 -543h-158z" />
<glyph unicode="_" horiz-adv-x="841" d="M10 57h819v-131h-819v131z" />
<glyph unicode="`" horiz-adv-x="391" d="M0 1425l158 70l227 -332l-123 -43z" />
<glyph unicode="a" horiz-adv-x="1009" d="M82 229q0 82 36.5 146.5t95.5 106t143.5 70t170 42t185.5 18.5v62q0 103 -48.5 147.5t-158.5 44.5q-77 0 -165.5 -21.5t-150.5 -56.5l-24 142q169 74 356 74q182 0 267 -71.5t85 -225.5v-707h-155v68q0 48 12 110l-6 2q-21 -47 -59 -82q-124 -118 -301 -118 q-124 0 -203.5 68t-79.5 181zM252 262q0 -68 44 -107.5t114 -39.5q114 0 208.5 93t94.5 226v55q-87 -2 -165.5 -15t-146.5 -39t-108.5 -70.5t-40.5 -102.5z" />
<glyph unicode="b" horiz-adv-x="1105" d="M143 27v1468h162v-635q47 64 125.5 104t173.5 40q102 0 181.5 -37t128.5 -102t73.5 -150t24.5 -185q0 -171 -73 -297.5t-195.5 -189.5t-276.5 -63q-80 0 -171.5 12.5t-152.5 34.5zM305 158q63 -35 195 -35q143 0 241.5 103.5t98.5 273.5q0 73 -15 136t-45 114t-82 80.5 t-120 29.5q-104 0 -188.5 -82t-84.5 -207v-413z" />
<glyph unicode="c" horiz-adv-x="905" d="M92 483q0 228 143 374.5t359 146.5q116 0 213 -33l-29 -146q-88 35 -205 35q-139 0 -224 -102t-85 -258q0 -183 86.5 -280t239.5 -97q63 0 124.5 21t98.5 44l45 -129q-143 -79 -305 -79q-216 0 -338.5 131t-122.5 372z" />
<glyph unicode="d" horiz-adv-x="1112" d="M92 446q0 158 60.5 283.5t180.5 200t283 74.5q105 0 191 -25v516h162v-1495h-162v160q-56 -79 -142 -129.5t-196 -50.5q-180 0 -278.5 127t-98.5 339zM264 477q0 -155 61 -254.5t171 -99.5q126 0 218.5 103t92.5 225v360q-93 49 -219 49q-149 0 -236.5 -107t-87.5 -276z " />
<glyph unicode="e" horiz-adv-x="1021" d="M92 483q0 146 53 263t160 187.5t252 70.5q168 0 268.5 -109t100.5 -289q0 -73 -17 -143h-647q5 -165 82 -256.5t227 -91.5q140 0 273 82l47 -121q-53 -38 -152 -67t-190 -29q-216 0 -336.5 129t-120.5 374zM272 592h486q1 11 1 21q0 107 -56 178q-61 77 -168 77 q-118 0 -187 -84.5t-76 -191.5z" />
<glyph unicode="f" horiz-adv-x="688" d="M43 846v137h188v125q0 387 334 387q86 0 162 -31l-29 -131q-67 19 -141 19q-93 0 -128.5 -53t-35.5 -162v-154h258v-137h-258v-846h-162v846h-188z" />
<glyph unicode="g" horiz-adv-x="1083" d="M92 438q0 166 66 293.5t192 200t295 72.5q150 0 305 -46v-821q0 -316 -126.5 -462t-381.5 -146q-75 0 -154 14t-128 39l26 154q53 -29 134.5 -46.5t148.5 -17.5q174 0 246.5 110.5t72.5 326.5v77q-46 -80 -132 -124t-189 -44q-178 0 -276.5 109.5t-98.5 310.5zM264 471 q0 -149 64.5 -229t171.5 -80q120 0 204 100.5t84 251.5v311q-73 35 -170 35q-73 0 -132.5 -20.5t-100.5 -56t-68.5 -84.5t-40 -106t-12.5 -122z" />
<glyph unicode="h" horiz-adv-x="1093" d="M143 0v1491h162v-662q50 82 137 128.5t185 46.5q168 0 251 -93.5t83 -287.5v-623h-162v582q0 139 -48 208.5t-161 69.5q-84 0 -150 -51.5t-100.5 -133t-34.5 -175.5v-500h-162z" />
<glyph unicode="i" horiz-adv-x="450" d="M115 1284q0 48 29.5 78.5t78.5 30.5q52 0 81.5 -32t29.5 -77q0 -49 -30.5 -79.5t-80.5 -30.5q-46 0 -77 29.5t-31 80.5zM143 0v983h162v-983h-162z" />
<glyph unicode="j" horiz-adv-x="440" d="M-133 -449l18 144q64 -23 123 -23q76 0 105.5 64t29.5 184v1063h162v-1034q0 -207 -70 -313.5t-243 -106.5q-80 0 -125 22zM115 1284q0 48 29.5 78.5t78.5 30.5q52 0 81.5 -32t29.5 -77q0 -49 -30.5 -79.5t-80.5 -30.5q-46 0 -77 29.5t-31 80.5z" />
<glyph unicode="k" horiz-adv-x="950" d="M143 0v1495h162v-909l424 397h209l-463 -430l473 -553h-213l-430 506v-506h-162z" />
<glyph unicode="l" horiz-adv-x="450" d="M143 0v1495h162v-1495h-162z" />
<glyph unicode="m" horiz-adv-x="1665" d="M143 0v983h164v-135q48 74 129 115t164 41q110 0 181 -40t100 -135q47 78 129.5 126.5t199.5 48.5q82 0 142 -25.5t93 -63.5t52.5 -94t25 -103.5t5.5 -105.5v-612h-162v571q0 70 -7 117.5t-26 89t-57 62t-96 20.5q-121 0 -193 -83.5t-72 -227.5v-549h-159v594 q0 266 -189 266q-112 0 -187 -92t-75 -217v-551h-162z" />
<glyph unicode="n" horiz-adv-x="1089" d="M143 0v983h162v-137q44 71 129.5 114.5t194.5 43.5q167 0 247 -92.5t80 -276.5v-635h-161v586q0 137 -45 205.5t-160 68.5q-128 0 -206.5 -96.5t-78.5 -233.5v-530h-162z" />
<glyph unicode="o" horiz-adv-x="1126" d="M92 475q0 233 131 381t359 148q210 0 330 -139t120 -359q0 -234 -130.5 -380t-352.5 -146q-96 0 -178 31.5t-144.5 91.5t-98.5 156t-36 216zM264 506q0 -184 83.5 -283.5t234.5 -99.5q85 0 149.5 48.5t96.5 128t32 175.5q0 178 -79 281.5t-232 103.5q-131 0 -208 -103 t-77 -251z" />
<glyph unicode="p" horiz-adv-x="1097" d="M143 -471v1454h162v-135q103 156 313 156q185 0 286.5 -131t101.5 -343q0 -254 -148 -402t-385 -148q-82 0 -168 16v-467h-162zM305 156q70 -33 197 -33q151 0 241.5 105t90.5 272q0 160 -67 260t-185 100q-120 0 -198.5 -94.5t-78.5 -235.5v-374z" />
<glyph unicode="q" horiz-adv-x="1110" d="M92 451q0 258 153 405.5t421 147.5q139 0 301 -43v-1432h-162v610q-46 -75 -127 -117t-182 -42q-100 0 -179 37.5t-127 102.5t-73 149t-25 182zM264 481q0 -99 25.5 -177t88.5 -129.5t157 -51.5q82 0 145 52t94 130.5t31 167.5v356q-63 31 -170 31q-190 0 -280.5 -102 t-90.5 -277z" />
<glyph unicode="r" horiz-adv-x="704" d="M143 0v983h162v-143q36 81 113 122.5t166 41.5q69 0 121 -19l-27 -166q-54 23 -123 23q-127 0 -188.5 -100.5t-61.5 -266.5v-475h-162z" />
<glyph unicode="s" horiz-adv-x="851" d="M92 37l33 151q50 -29 127.5 -50t148.5 -21q80 0 141.5 39t61.5 102q0 41 -28 74.5t-73 56.5t-99.5 45.5t-109 48t-99.5 56.5t-73 78.5t-28 107.5q0 129 103 204t258 75q139 0 256 -48l-29 -139q-116 49 -248 49q-77 0 -126.5 -31t-49.5 -81q0 -38 28 -68.5t73.5 -53 t100 -44.5t109 -48.5t100 -59t73.5 -82t28 -111.5q0 -74 -32 -134t-86.5 -97t-124 -56.5t-146.5 -19.5q-165 0 -289 57z" />
<glyph unicode="t" horiz-adv-x="700" d="M25 846v137h178v256l159 37v-293h281v-137h-281v-494q0 -113 29 -171t109 -58q68 0 139 33l27 -121q-83 -55 -201 -55q-142 0 -202 85.5t-60 256.5v524h-178z" />
<glyph unicode="u" horiz-adv-x="1087" d="M135 360v623h160v-586q0 -147 44 -211.5t146 -64.5q133 0 214 117.5t81 298.5v446h162v-983h-162v168q-44 -87 -132 -137.5t-195 -50.5q-161 0 -239.5 90t-78.5 290z" />
<glyph unicode="v" horiz-adv-x="993" d="M12 983h176l320 -776l309 776h162l-406 -983h-147z" />
<glyph unicode="w" horiz-adv-x="1505" d="M20 983h175l260 -723l266 723h94l252 -723l272 723h146l-381 -983h-117l-237 676l-246 -676h-121z" />
<glyph unicode="x" horiz-adv-x="944" d="M-2 0l377 522l-330 461h195l241 -344l242 344h176l-332 -463l371 -520h-195l-282 403l-287 -403h-176z" />
<glyph unicode="y" horiz-adv-x="993" d="M12 983h176l318 -768l311 768h162l-406 -983l-196 -471h-152l199 475z" />
<glyph unicode="z" horiz-adv-x="854" d="M49 31l465 815h-438v137h674l6 -29l-461 -817h496v-137h-736z" />
<glyph unicode="{" horiz-adv-x="753" d="M150 621v69q46 24 75 47t46.5 45t25.5 57.5t10 68t2 93.5v246q0 156 73 245t239 116l20 -117q-97 -14 -132.5 -72t-35.5 -172v-256q0 -124 -31.5 -196.5t-126.5 -139.5q92 -66 125 -137t33 -199v-276q0 -55 11.5 -96t26.5 -62.5t41.5 -36.5t43 -19t45.5 -9l-20 -117 q-158 22 -235 109t-77 251v246q0 99 -13 153t-45 88t-101 71z" />
<glyph unicode="|" horiz-adv-x="589" d="M215 -348v1943h160v-1943h-160z" />
<glyph unicode="}" horiz-adv-x="753" d="M113 -180q98 14 133 71t35 172v256q0 124 31.5 196t125.5 140q-91 66 -124 137t-33 199v277q0 55 -11.5 96t-26.5 62.5t-41.5 36.5t-43 19t-45.5 9l20 117q158 -22 234.5 -109.5t76.5 -251.5v-246q0 -143 30 -200.5t130 -110.5v-69q-46 -24 -75 -47t-47 -45.5t-26 -58 t-10 -68t-2 -93.5v-246q0 -156 -72.5 -244.5t-238.5 -115.5z" />
<glyph unicode="~" horiz-adv-x="1267" d="M143 446q0 129 70.5 212t179.5 83q53 0 125 -30.5t131 -67.5t123.5 -67.5t104.5 -30.5q47 0 78.5 42.5t31.5 117.5v8h131q-7 -157 -73.5 -228t-163.5 -71q-59 0 -135 30.5t-135.5 67.5t-122.5 67.5t-99 30.5q-47 0 -80 -41t-33 -123h-133z" />
<glyph unicode="&#xa2;" horiz-adv-x="892" d="M23 729q0 193 119.5 331t310.5 175v240h139v-228q116 -3 231 -33l-26 -151q-83 32 -205 39v-735q68 3 134.5 24.5t98.5 42.5l49 -131q-135 -69 -282 -78v-225h-139v227q-193 24 -311.5 153.5t-118.5 348.5zM199 743q0 -149 66 -241.5t188 -122.5v713q-118 -30 -186 -125 t-68 -224z" />
<glyph unicode="&#xa3;" horiz-adv-x="1017" d="M33 696v138h209q-11 97 -11 159q0 249 113.5 375.5t374.5 126.5q151 0 254 -43l-31 -145q-119 45 -256 45q-162 0 -221 -77.5t-59 -252.5q0 -69 14 -188h375v-138h-357q15 -124 15 -186q0 -109 -26 -206.5t-69 -166.5h607v-137h-805l-8 92q129 152 129 385q0 59 -21 219 h-227z" />
<glyph unicode="&#xa5;" horiz-adv-x="1196" d="M39 1475h199l362 -637l377 637h180l-360 -615h342v-145h-432l-23 -215h455v-146h-455v-354h-172v354h-457v146h457l-43 215h-414v145h334z" />
<glyph unicode="&#xa8;" horiz-adv-x="645" d="M31 1294q0 47 29.5 76t76.5 29q51 0 78 -30.5t27 -74.5q0 -47 -29 -76.5t-76 -29.5q-45 0 -75.5 28.5t-30.5 77.5zM406 1294q0 47 29.5 76t76.5 29q50 0 76 -30.5t26 -74.5q0 -47 -28 -76.5t-74 -29.5t-76 28.5t-30 77.5z" />
<glyph unicode="&#xa9;" horiz-adv-x="1763" d="M115 723q0 164 58.5 307t160 244.5t243.5 160t304 58.5q167 0 310.5 -59t243.5 -161t157 -242.5t57 -299.5q0 -162 -57.5 -304.5t-158.5 -245t-244.5 -161.5t-307.5 -59q-213 0 -386.5 92t-276.5 267t-103 403zM252 731q0 -144 51 -265t137.5 -200.5t200.5 -123.5 t240 -44q274 0 452 173.5t178 451.5q0 181 -80.5 326t-224.5 226t-325 81q-116 0 -217 -33.5t-175.5 -92.5t-128.5 -138t-81 -171t-27 -190zM481 717q0 184 127.5 305t329.5 121q101 0 201 -35l-39 -131q-74 35 -182 35q-126 0 -195.5 -81t-69.5 -198q0 -143 73 -218 t206 -75q84 0 201 60l34 -125q-127 -62 -272 -62q-183 0 -298.5 105t-115.5 299z" />
<glyph unicode="&#xab;" horiz-adv-x="929" d="M82 573l262 406l119 -49l-193 -357l193 -348l-119 -49zM455 573l254 406l116 -49l-182 -357l182 -348l-116 -49z" />
<glyph unicode="&#xad;" d="M113 516v139h530v-139h-530z" />
<glyph unicode="&#xae;" horiz-adv-x="1421" d="M109 1100q0 168 77 305.5t214.5 216t308.5 78.5q130 0 242 -47t189 -127.5t121 -190t44 -231.5q0 -126 -45 -237.5t-123.5 -191t-189.5 -125.5t-238 -46q-260 0 -430 166.5t-170 429.5zM238 1104q0 -141 65.5 -250t172 -165t233.5 -56q203 0 336 131t133 336 q0 202 -132.5 336.5t-336.5 134.5q-142 0 -251 -65.5t-164.5 -171t-55.5 -230.5zM471 782v635q101 19 203 19q272 0 272 -164q0 -57 -41 -99.5t-100 -58.5q50 -7 74 -35.5t43 -89.5l65 -207h-143l-56 166q-19 55 -45.5 78t-85.5 23h-45v-267h-141zM612 1159h54 q54 0 92.5 24.5t38.5 65.5q0 74 -123 74q-26 0 -62 -4v-160z" />
<glyph unicode="&#xb4;" horiz-adv-x="415" d="M18 1163l226 332l155 -70l-260 -305z" />
<glyph unicode="&#xb8;" horiz-adv-x="387" d="M23 -373l32 94q47 -14 80 -14q34 0 54 16t20 44q0 69 -133 86l94 149l123 -4l-53 -86q59 -13 90.5 -49t31.5 -86q0 -81 -61 -126.5t-162 -45.5q-59 0 -116 22z" />
<glyph unicode="&#xbb;" horiz-adv-x="929" d="M102 225l185 357l-185 348l119 49l254 -397l-254 -406zM467 225l192 357l-192 348l119 49l260 -397l-260 -406z" />
<glyph unicode="&#x2c6;" horiz-adv-x="667" d="M23 1225l319 266l303 -260l-76 -101l-235 175l-242 -175z" />
<glyph unicode="&#x2da;" horiz-adv-x="497" d="M27 1298q0 81 63 138t162 57q102 0 159.5 -49t57.5 -129q0 -99 -60.5 -148t-162.5 -49q-94 0 -156.5 49t-62.5 131zM156 1313q0 -40 27 -68t67 -28q41 0 64.5 22.5t23.5 60.5q0 41 -26 69t-66 28q-39 0 -64.5 -23t-25.5 -61z" />
<glyph unicode="&#x2dc;" horiz-adv-x="704" d="M27 1214q51 213 209 213q39 0 80 -18t69 -40t59 -40t52 -18q22 0 35 27t28 85l117 -24q-29 -122 -72.5 -176t-124.5 -54q-50 0 -98.5 30t-88.5 59.5t-71 29.5q-20 0 -41 -28.5t-35 -73.5z" />
<glyph unicode="&#x401;" horiz-adv-x="1155" d="M207 0v1475h825v-152h-651v-496h633v-149h-633v-526h661v-152h-835zM291 1761q0 43 32.5 75t77.5 32q44 0 77.5 -32t33.5 -75q0 -47 -33 -79.5t-78 -32.5q-46 0 -78 32.5t-32 79.5zM731 1761q0 43 31.5 75t75.5 32q48 0 80 -31.5t32 -75.5q0 -48 -31.5 -80t-80.5 -32 q-44 0 -75.5 32.5t-31.5 79.5z" />
<glyph unicode="&#x402;" horiz-adv-x="1574" d="M47 1323v152h1153v-152h-502v-453h220q577 0 577 -432q0 -204 -161.5 -331t-454.5 -127l30 153q179 -2 290.5 73t111.5 212q0 151 -95.5 226t-308.5 75h-209v-719h-174v1323h-477z" />
<glyph unicode="&#x403;" horiz-adv-x="1062" d="M207 0v1475h788v-152h-616v-1323h-172zM475 1679l320 260l129 -112l-361 -225z" />
<glyph unicode="&#x404;" horiz-adv-x="1300" d="M135 709q0 222 89 400t256.5 282t383.5 104q196 0 320 -65l-33 -156q-130 67 -307 67q-146 0 -261 -72.5t-179 -187.5t-80 -254h688v-149h-690q9 -118 44.5 -215t98.5 -172t160.5 -116.5t220.5 -41.5q80 0 167 29t154 78l62 -131q-154 -129 -410 -129q-318 0 -501 199.5 t-183 529.5z" />
<glyph unicode="&#x405;" horiz-adv-x="1101" d="M109 53l38 166q172 -86 338 -86q143 0 235.5 62.5t92.5 189.5q0 61 -38 112.5t-98.5 90t-133.5 76t-146 79t-133.5 89t-98.5 116.5t-38 152q0 182 130.5 288.5t350.5 106.5q185 0 316 -57l-33 -162q-145 65 -299 65q-134 0 -209.5 -52t-75.5 -156q0 -62 38 -114 t98.5 -90.5t134 -75t147 -77.5t134 -88.5t98.5 -116.5t38 -153q0 -106 -40.5 -190.5t-112 -138t-166.5 -81.5t-207 -28q-203 0 -360 73z" />
<glyph unicode="&#x406;" horiz-adv-x="585" d="M207 0v1475h174v-1475h-174z" />
<glyph unicode="&#x407;" horiz-adv-x="585" d="M-35 1761q0 43 32 75t79 32q44 0 77 -32t33 -75q0 -47 -32.5 -79.5t-77.5 -32.5q-47 0 -79 32.5t-32 79.5zM207 0v1475h174v-1475h-174zM406 1761q0 43 31.5 75t76.5 32t78 -32t33 -75q0 -47 -32.5 -79.5t-78.5 -32.5t-77 32.5t-31 79.5z" />
<glyph unicode="&#x408;" horiz-adv-x="819" d="M29 33l34 149q103 -49 205 -49q103 0 146 80.5t43 247.5v1014h174v-977q0 -132 -18.5 -224.5t-63 -160.5t-121.5 -100.5t-190 -32.5q-49 0 -109.5 15.5t-99.5 37.5z" />
<glyph unicode="&#x409;" horiz-adv-x="2054" d="M35 -14l24 155q31 -8 60 -8q97 0 136 78t52 250l86 1014h864v-605h183q133 0 238 -35t168 -94t95.5 -131.5t32.5 -152.5q0 -108 -32.5 -193t-101.5 -149.5t-185.5 -99.5t-274.5 -35q-157 0 -295 24v1319h-536l-68 -823q-9 -114 -22.5 -189.5t-40.5 -143.5t-69 -106 t-107 -59.5t-156 -21.5q-27 0 -51 6zM1257 143q92 -10 160 -10q180 0 275.5 82.5t95.5 208.5q0 133 -97 214t-284 81h-150v-576z" />
<glyph unicode="&#x40a;" horiz-adv-x="2064" d="M207 0v1475h174v-605h713v605h174v-605h170q138 0 245 -34.5t172 -94.5t97.5 -136.5t32.5 -166.5q0 -99 -35.5 -181t-106.5 -144.5t-186.5 -97.5t-265.5 -35q-137 0 -297 26v713h-713v-719h-174zM1268 143q92 -10 157 -10q173 0 273 76.5t100 214.5q0 134 -95 214.5 t-286 80.5h-149v-576z" />
<glyph unicode="&#x40b;" horiz-adv-x="1591" d="M47 1323v152h1151v-152h-500v-569q55 79 156.5 127.5t210.5 48.5q391 0 391 -389v-541h-170v500q0 141 -57 209.5t-187 68.5q-148 0 -246 -103.5t-98 -244.5v-430h-174v1323h-477z" />
<glyph unicode="&#x40c;" horiz-adv-x="1257" d="M207 0v1475h174v-635l375 417q112 127 193.5 182.5t183.5 55.5q49 0 108 -18l-39 -148q-35 17 -69 17q-51 0 -96.5 -35t-135.5 -131l-358 -385l692 -795h-227l-627 727v-727h-174zM565 1679l322 260l129 -112l-363 -225z" />
<glyph unicode="&#x40e;" horiz-adv-x="1155" d="M6 1475h195l381 -703l379 703h192l-819 -1475h-195l346 604zM256 1915h129q11 -68 56.5 -109t115.5 -41q68 0 114.5 40.5t55.5 109.5h131q-13 -134 -100 -211.5t-211 -77.5q-123 0 -202.5 78.5t-88.5 210.5z" />
<glyph unicode="&#x40f;" horiz-adv-x="1445" d="M207 0v1475h174v-1323h684v1323h174v-1475h-432v-305h-166v305h-434z" />
<glyph unicode="&#x410;" horiz-adv-x="1402" d="M33 0l612 1475h127l598 -1475h-186l-203 514h-571l-207 -514h-170zM473 666h447l-222 561z" />
<glyph unicode="&#x411;" horiz-adv-x="1175" d="M207 8v1467h860v-152h-686v-451h158q279 0 418 -118.5t139 -315.5q0 -101 -33 -182t-101.5 -144t-184.5 -97.5t-273 -34.5q-196 0 -297 28zM381 145q80 -12 158 -12q59 0 111 8.5t100.5 29.5t83 53t55 83.5t20.5 116.5q0 141 -94 218t-287 77h-147v-574z" />
<glyph unicode="&#x412;" horiz-adv-x="1247" d="M207 12v1442q175 41 381 41q99 0 183.5 -19.5t152.5 -59t106.5 -107t38.5 -156.5q0 -124 -71 -220t-179 -132v-6q133 -25 217 -120.5t84 -228.5q0 -216 -155 -341t-426 -125q-179 0 -332 32zM381 152q82 -21 190 -21q162 0 263.5 74.5t101.5 210.5q0 122 -95.5 196 t-244.5 74q-141 0 -215 -2v-532zM381 834h117q68 0 135.5 19t123.5 54t91 90.5t35 122.5q0 223 -332 223q-100 0 -170 -18v-491z" />
<glyph unicode="&#x413;" horiz-adv-x="1062" d="M207 0v1475h788v-152h-616v-1323h-172z" />
<glyph unicode="&#x414;" horiz-adv-x="1476" d="M70 152h67q68 0 121.5 87.5t65.5 221.5l79 1014h871v-1323h135v-457h-166v305h-1007v-305h-166v457zM373 152h727v1171h-535l-67 -823q-15 -161 -41.5 -234.5t-83.5 -113.5z" />
<glyph unicode="&#x415;" horiz-adv-x="1155" d="M207 0v1475h825v-152h-651v-496h633v-149h-633v-526h661v-152h-835z" />
<glyph unicode="&#x416;" horiz-adv-x="1929" d="M23 1475q68 20 135 20q85 0 163.5 -53t182.5 -168l375 -412v633h174v-633l374 412q106 119 189 170t188 51q43 0 105 -16l-33 -150q-42 17 -76 17q-45 0 -98 -36t-131 -122l-365 -391l695 -797h-232l-616 719v-719h-174v719l-619 -719h-223l688 788l-369 396 q-87 95 -134 128.5t-99 33.5q-29 0 -68 -17z" />
<glyph unicode="&#x417;" horiz-adv-x="1128" d="M104 39l37 149q128 -61 344 -61q142 0 230 81.5t88 209.5q0 137 -104.5 205.5t-327.5 68.5h-78v148h108q153 0 251 82.5t98 203.5q0 103 -74.5 160t-218.5 57q-173 0 -293 -67l-27 145q62 32 159 53t189 21q211 0 329 -90t118 -246q0 -135 -73 -231t-183 -127 q138 -22 222.5 -119.5t84.5 -230.5q0 -112 -40.5 -202.5t-111 -148.5t-166 -89t-206.5 -31q-101 0 -199.5 16t-155.5 43z" />
<glyph unicode="&#x418;" horiz-adv-x="1474" d="M207 0v1475h162v-1168l735 1168h164v-1475h-164v1176l-742 -1176h-155z" />
<glyph unicode="&#x419;" horiz-adv-x="1474" d="M207 0v1475h162v-1168l735 1168h164v-1475h-164v1176l-742 -1176h-155zM436 1915h131q11 -68 56.5 -109t115.5 -41q67 0 113 41t53 109h133q-12 -134 -99 -211.5t-212 -77.5q-122 0 -201.5 78.5t-89.5 210.5z" />
<glyph unicode="&#x41a;" horiz-adv-x="1257" d="M207 0v1475h174v-635l375 417q112 127 193.5 182.5t183.5 55.5q49 0 108 -18l-39 -148q-35 17 -69 17q-51 0 -96.5 -35t-135.5 -131l-358 -385l692 -795h-227l-627 727v-727h-174z" />
<glyph unicode="&#x41b;" horiz-adv-x="1466" d="M35 -14l24 155q31 -8 60 -8q97 0 136 78t52 250l86 1014h864v-1475h-174v1323h-534l-68 -823q-9 -114 -22.5 -189.5t-40.5 -143.5t-69 -106t-107 -59.5t-156 -21.5q-27 0 -51 6z" />
<glyph unicode="&#x41c;" horiz-adv-x="1853" d="M154 0l133 1475h200l445 -1147l430 1147h197l135 -1475h-170l-103 1219l-428 -1143h-137l-440 1147l-101 -1223h-161z" />
<glyph unicode="&#x41d;" horiz-adv-x="1476" d="M207 0v1475h174v-641h713v641h174v-1475h-174v682h-713v-682h-174z" />
<glyph unicode="&#x41e;" horiz-adv-x="1544" d="M135 729q0 215 75 387t224 275.5t348 103.5q142 0 260 -56t198.5 -154.5t124.5 -236t44 -298.5q0 -151 -43 -288.5t-122.5 -245.5t-204 -172t-277.5 -64q-132 0 -239.5 44t-178.5 117t-119 171t-69 202t-21 215zM319 750q0 -87 15 -171.5t50.5 -166t87.5 -143t132 -99 t178 -37.5q87 0 160 33t124.5 89.5t88 132.5t53.5 162.5t17 178.5q0 173 -54.5 311t-161 219.5t-247.5 81.5q-101 0 -185.5 -47.5t-140 -129t-86.5 -188.5t-31 -226z" />
<glyph unicode="&#x41f;" horiz-adv-x="1443" d="M207 0v1475h1030v-1475h-174v1323h-682v-1323h-174z" />
<glyph unicode="&#x420;" horiz-adv-x="1173" d="M207 0v1456q220 39 391 39q230 0 363 -113.5t133 -294.5q0 -125 -49.5 -221.5t-137.5 -154.5t-201.5 -87.5t-248.5 -29.5h-76v-594h-174zM381 743h106q188 0 305 79t117 229q0 140 -83.5 215t-250.5 75q-108 0 -194 -22v-576z" />
<glyph unicode="&#x421;" horiz-adv-x="1300" d="M135 709q0 131 32 249.5t94 216.5t149.5 169.5t203.5 111t250 39.5q193 0 320 -65l-35 -154q-56 27 -141 46t-164 19q-123 0 -224 -50t-166 -133t-100 -188t-35 -218q0 -127 33 -238t96 -196.5t163 -135t225 -49.5q86 0 174 28t159 75l60 -127q-74 -61 -184.5 -95 t-235.5 -34q-208 0 -363 99.5t-233 263t-78 366.5z" />
<glyph unicode="&#x422;" horiz-adv-x="1179" d="M47 1323v152h1088v-152h-457v-1323h-174v1323h-457z" />
<glyph unicode="&#x423;" horiz-adv-x="1150" d="M2 1475h195l383 -703l376 703h195l-819 -1475h-195l346 604z" />
<glyph unicode="&#x424;" horiz-adv-x="1585" d="M82 723q0 101 43.5 193.5t121.5 166t197 121.5t261 58v233h174v-233q151 -11 272 -58.5t196.5 -119t115.5 -158t40 -178.5q0 -94 -40.5 -184t-116 -166t-197 -126.5t-270.5 -60.5v-231h-174v235q-144 7 -264 53.5t-197 118t-119.5 159t-42.5 177.5zM262 745 q0 -149 110 -252t333 -124v737q-89 -8 -164 -34.5t-125.5 -63.5t-86 -82.5t-51.5 -91t-16 -89.5zM879 367q117 9 205.5 43t138.5 84t74 106.5t24 118.5q0 66 -23.5 127t-73 116.5t-138 94t-207.5 49.5v-739z" />
<glyph unicode="&#x425;" horiz-adv-x="1280" d="M33 0l506 786l-445 689h201l354 -549l350 549h187l-447 -691l508 -784h-198l-420 645l-410 -645h-186z" />
<glyph unicode="&#x426;" horiz-adv-x="1439" d="M207 0v1475h174v-1323h682v1323h174v-1323h133v-457h-166v305h-997z" />
<glyph unicode="&#x427;" horiz-adv-x="1329" d="M135 1044v431h174v-394q0 -311 342 -311q65 0 153.5 22t149.5 62v621h168v-1475h-168v686q-78 -34 -167 -52t-158 -18q-86 0 -159.5 14.5t-136 47t-106 82t-68 121.5t-24.5 163z" />
<glyph unicode="&#x428;" horiz-adv-x="1882" d="M207 0v1475h174v-1323h473v1323h174v-1323h473v1323h174v-1475h-1468z" />
<glyph unicode="&#x429;" horiz-adv-x="1875" d="M207 0v1475h174v-1323h473v1323h174v-1323h473v1323h174v-1323h133v-457h-166v305h-1435z" />
<glyph unicode="&#x42a;" horiz-adv-x="1470" d="M47 1323v152h631v-605h158q141 0 250.5 -35.5t174.5 -96t97.5 -135.5t32.5 -161q0 -102 -32.5 -184t-101 -145.5t-184.5 -98t-274 -34.5q-135 0 -295 26v1317h-457zM678 143q88 -10 158 -10q179 0 274.5 82.5t95.5 208.5q0 133 -97 214t-284 81h-147v-576z" />
<glyph unicode="&#x42b;" horiz-adv-x="1761" d="M207 6v1469h174v-607h158q115 0 208.5 -23.5t157.5 -63.5t107.5 -95.5t63.5 -118.5t20 -133q0 -99 -33 -179.5t-101 -143t-184.5 -97t-273.5 -34.5q-137 0 -297 26zM381 141q88 -10 158 -10q180 0 275 83.5t95 209.5q0 133 -96.5 213t-284.5 80h-147v-576zM1380 0v1475 h174v-1475h-174z" />
<glyph unicode="&#x42c;" horiz-adv-x="1175" d="M207 6v1469h174v-607h158q115 0 208.5 -23.5t157.5 -63.5t107.5 -95.5t63.5 -118.5t20 -133q0 -99 -33 -179.5t-101 -143t-184.5 -97t-273.5 -34.5q-137 0 -297 26zM381 141q88 -10 158 -10q180 0 275 83.5t95 209.5q0 133 -96.5 213t-284.5 80h-147v-576z" />
<glyph unicode="&#x42d;" horiz-adv-x="1300" d="M68 88l63 145q139 -100 375 -100q141 0 249.5 70t166.5 193.5t57 281.5h-692v149h688q-13 142 -77 257t-179 186t-262 71q-180 0 -310 -67l-30 156q149 65 375 65q147 0 274 -60t213.5 -162.5t136 -240.5t49.5 -291q0 -360 -181 -560.5t-503 -200.5q-135 0 -243 29.5 t-170 78.5z" />
<glyph unicode="&#x42e;" horiz-adv-x="2131" d="M207 0v1475h174v-658h344q25 302 200.5 490t444.5 188q142 0 260 -56t198.5 -154.5t124.5 -236t44 -298.5q0 -151 -43 -288.5t-122.5 -245.5t-204 -172t-277.5 -64q-125 0 -228 39t-173 104.5t-119.5 154.5t-74 185.5t-30.5 202.5h-344v-666h-174zM907 750q0 -98 18 -188 t55.5 -168.5t91 -136t130.5 -91t168 -33.5q201 0 321.5 168.5t120.5 427.5q0 114 -30 221.5t-86 195.5t-146 141.5t-200 53.5q-87 0 -162 -37t-125.5 -97.5t-86.5 -138t-52.5 -158.5t-16.5 -160z" />
<glyph unicode="&#x42f;" horiz-adv-x="1247" d="M88 0l137 449q41 134 89 205t141 94q-114 25 -198.5 129t-84.5 219q0 204 137 301.5t389 97.5q132 0 340 -37v-1458h-174v664h-166q-130 0 -195.5 -58.5t-115.5 -214.5l-119 -391h-180zM356 1106q0 -127 103.5 -209t255.5 -82h149v506q-98 20 -188 20 q-151 0 -235.5 -60.5t-84.5 -174.5z" />
<glyph unicode="&#x430;" horiz-adv-x="1009" d="M82 223q0 84 36.5 150t95.5 107.5t143.5 70.5t170 42.5t185.5 18.5v62q0 103 -48.5 147.5t-158.5 44.5q-77 0 -165.5 -21.5t-150.5 -56.5l-24 142q169 74 356 74q174 0 259.5 -67.5t90.5 -207.5q2 -31 2 -94v-635h-155v68q0 54 10 106h-4q-129 -194 -360 -194 q-123 0 -203 69t-80 174zM252 262q0 -68 42.5 -107.5t108.5 -39.5q119 0 214.5 101t95.5 243v30q-87 -2 -165.5 -15t-146.5 -39t-108.5 -70.5t-40.5 -102.5z" />
<glyph unicode="&#x431;" horiz-adv-x="1136" d="M102 608q0 143 15.5 252.5t53 205t99.5 163t156 116.5t223 76l320 68l16 -150l-254 -51q-234 -47 -334 -149t-121 -281q162 146 369 146q180 0 288.5 -125t108.5 -347q0 -245 -126.5 -398.5t-350.5 -153.5q-125 0 -215.5 43.5t-144 127t-78.5 196t-25 261.5zM270 580 q0 -457 316 -457q135 0 209.5 108.5t74.5 272.5q0 70 -13 130.5t-42 113t-82 82.5t-125 30q-81 0 -174 -45.5t-164 -126.5v-108z" />
<glyph unicode="&#x432;" horiz-adv-x="966" d="M143 0v975q178 29 316 29q368 0 368 -238q0 -83 -45 -142t-116 -87l-2 -5q101 -18 154.5 -81t53.5 -154q0 -151 -124.5 -234t-327.5 -83q-160 0 -277 20zM305 444l2 -315q58 -14 148 -14q60 0 114 17t92.5 55.5t38.5 91.5q0 167 -294 167q-17 0 -46.5 -1t-54.5 -1z M305 573h115q90 0 161.5 48t71.5 124q0 125 -202 125q-64 0 -146 -14v-283z" />
<glyph unicode="&#x433;" horiz-adv-x="759" d="M143 0v983h576v-137h-414v-846h-162z" />
<glyph unicode="&#x434;" horiz-adv-x="1097" d="M53 137h49q53 0 78 53.5t35 188.5l41 604h700v-846h91v-340h-150v203h-694v-203h-150v340zM301 137h494v709h-387l-33 -436q-9 -131 -24 -188.5t-50 -84.5z" />
<glyph unicode="&#x435;" horiz-adv-x="1021" d="M92 483q0 146 53 263t160 187.5t252 70.5q168 0 268.5 -109t100.5 -289q0 -73 -17 -143h-647q5 -165 82 -256.5t227 -91.5q140 0 273 82l47 -121q-53 -38 -152 -67t-190 -29q-216 0 -336.5 129t-120.5 374zM272 592h486q6 122 -55 199t-168 77q-118 0 -187 -84.5 t-76 -191.5z" />
<glyph unicode="&#x436;" horiz-adv-x="1376" d="M-10 958q73 46 143 46q57 0 108 -33.5t117 -106.5l252 -280v403h158v-403l250 274q70 75 129 110.5t121 35.5t121 -39l-41 -125q-1 1 -9 6t-10 6t-9.5 4.5t-11.5 5t-11 3.5t-14 2.5t-15 0.5q-54 0 -156 -123l-197 -208l455 -537h-196l-406 479v-479h-158v479l-415 -479 h-189l455 530l-193 211q-106 127 -170 127q-34 0 -73 -26z" />
<glyph unicode="&#x437;" horiz-adv-x="833" d="M47 20l25 136q118 -43 266 -43q100 0 166.5 40.5t66.5 120.5q0 92 -76.5 130t-224.5 38h-100v129h121q107 0 174 48.5t67 130.5q0 66 -53.5 94.5t-142.5 25.5q-66 -2 -136 -15.5t-114 -33.5l-12 135q128 48 286 48q97 0 172 -21.5t124 -75t49 -133.5q0 -85 -51 -152.5 t-124 -93.5q91 -12 150 -77t59 -154q0 -106 -58.5 -179t-152 -105.5t-215.5 -32.5q-168 0 -266 40z" />
<glyph unicode="&#x438;" horiz-adv-x="1101" d="M143 0v983h148v-778l477 778h190v-983h-149v780l-473 -780h-193z" />
<glyph unicode="&#x439;" horiz-adv-x="1101" d="M143 0v983h148v-778l477 778h190v-983h-149v780l-473 -780h-193zM254 1448h129q11 -82 54.5 -126t115.5 -44q70 0 115 43t55 127h125q-11 -149 -96.5 -226t-210.5 -77q-122 0 -200 79.5t-87 223.5z" />
<glyph unicode="&#x43a;" horiz-adv-x="915" d="M143 0v983h162v-399l248 274q70 75 129 110.5t123 35.5q65 0 121 -39l-41 -129q-2 1 -6.5 4.5t-6.5 5t-6.5 4t-7 4t-6.5 3.5t-7.5 3t-8 2.5t-9 2t-9.5 1t-11 0.5q-21 0 -50 -20t-49.5 -40t-58.5 -61l-194 -208l452 -537h-198l-404 479v-479h-162z" />
<glyph unicode="&#x43b;" horiz-adv-x="1067" d="M12 -12l17 145q22 -10 63 -10q45 0 62 61t26 195l45 604h699v-983h-160v846h-393l-33 -422q-21 -256 -72 -350t-182 -94q-26 0 -72 8z" />
<glyph unicode="&#x43c;" horiz-adv-x="1355" d="M104 0l93 983h206l277 -729l274 729h203l94 -983h-157l-64 793l-274 -744h-164l-275 744l-61 -793h-152z" />
<glyph unicode="&#x43d;" horiz-adv-x="1073" d="M143 0v983h162v-410h461v410h162v-983h-162v436h-461v-436h-162z" />
<glyph unicode="&#x43e;" horiz-adv-x="1126" d="M92 475q0 233 131 381t359 148q210 0 330 -139t120 -359q0 -234 -130.5 -380t-352.5 -146q-96 0 -178 31.5t-144.5 91.5t-98.5 156t-36 216zM264 506q0 -184 83.5 -283.5t234.5 -99.5q85 0 149.5 48.5t96.5 128t32 175.5q0 178 -79 281.5t-232 103.5q-131 0 -208 -103 t-77 -251z" />
<glyph unicode="&#x43f;" horiz-adv-x="1058" d="M143 0v983h770v-983h-161v846h-447v-846h-162z" />
<glyph unicode="&#x440;" horiz-adv-x="1097" d="M143 -471v1454h162v-127q97 148 313 148q181 0 284.5 -132.5t103.5 -341.5q0 -254 -148 -402t-385 -148q-82 0 -168 16v-467h-162zM305 156q70 -33 197 -33q151 0 241.5 105t90.5 272q0 158 -68.5 259t-183.5 101q-130 0 -203.5 -97t-73.5 -233v-374z" />
<glyph unicode="&#x441;" horiz-adv-x="905" d="M92 483q0 228 143 374.5t359 146.5q116 0 213 -33l-29 -146q-88 35 -205 35q-139 0 -224 -102t-85 -258q0 -183 86.5 -280t239.5 -97q63 0 124.5 21t98.5 44l45 -129q-143 -79 -305 -79q-216 0 -338.5 131t-122.5 372z" />
<glyph unicode="&#x442;" horiz-adv-x="804" d="M41 846v137h723v-137h-281v-846h-161v846h-281z" />
<glyph unicode="&#x443;" horiz-adv-x="978" d="M12 983h176l293 -752l324 752h162l-627 -1454h-156l213 496z" />
<glyph unicode="&#x444;" horiz-adv-x="1363" d="M92 492q0 225 140 364t368 148v491h162v-491q229 0 368.5 -132.5t139.5 -379.5q0 -228 -139 -370t-369 -142v-451h-162v451q-245 3 -376.5 132.5t-131.5 379.5zM264 494q0 -164 86.5 -267.5t249.5 -103.5v737q-85 0 -150.5 -28.5t-105.5 -79t-60 -115.5t-20 -143z M762 123q171 0 253.5 101t82.5 270q0 159 -88.5 262.5t-247.5 103.5v-737z" />
<glyph unicode="&#x445;" horiz-adv-x="942" d="M0 0l377 520l-332 463h191l245 -344l242 344h176l-330 -465l373 -518h-192l-285 399l-287 -399h-178z" />
<glyph unicode="&#x446;" horiz-adv-x="1056" d="M143 0v983h162v-846h447v846h161v-846h91v-340h-150v203h-711z" />
<glyph unicode="&#x447;" horiz-adv-x="1044" d="M92 725v258h162v-225q0 -137 46.5 -193.5t145.5 -56.5q79 0 161 34t132 87v354h162v-983h-162v473q-64 -46 -153 -75t-183 -29q-154 0 -232.5 82.5t-78.5 273.5z" />
<glyph unicode="&#x448;" horiz-adv-x="1382" d="M143 0v983h162v-846h305v846h162v-846h305v846h160v-983h-1094z" />
<glyph unicode="&#x449;" horiz-adv-x="1380" d="M143 0v983h162v-846h305v846h162v-846h305v846h160v-846h90v-340h-147v203h-1037z" />
<glyph unicode="&#x44a;" horiz-adv-x="1099" d="M41 846v137h442v-319h181q181 0 279.5 -84.5t98.5 -233.5q0 -366 -481 -366q-107 0 -239 22v844h-281zM483 127q43 -12 111 -12q60 0 106 9.5t85.5 32.5t61 68t21.5 109q0 99 -62.5 148.5t-180.5 49.5h-142v-405z" />
<glyph unicode="&#x44b;" horiz-adv-x="1374" d="M143 2v981h162v-319h180q181 0 279 -84.5t98 -233.5q0 -366 -479 -366q-108 0 -240 22zM305 127q43 -12 111 -12q60 0 106.5 10t86 33.5t60.5 67.5t21 108q0 99 -63 148.5t-181 49.5h-141v-405zM1069 0v983h162v-983h-162z" />
<glyph unicode="&#x44c;" horiz-adv-x="911" d="M133 2v981h162v-319h178q181 0 280 -84.5t99 -233.5q0 -366 -481 -366q-110 0 -238 22zM295 127q40 -12 108 -12q61 0 108 10t87 33.5t61 67.5t21 108q0 99 -63 148.5t-181 49.5h-141v-405z" />
<glyph unicode="&#x44d;" horiz-adv-x="905" d="M45 49l49 133q122 -67 260 -67q123 0 206.5 91t88.5 226h-467v127h465q-12 142 -96.5 226.5t-220.5 84.5q-119 0 -203 -36l-25 129q121 41 254 41q207 0 332 -142t125 -379q0 -230 -134 -366.5t-353 -136.5q-163 0 -281 69z" />
<glyph unicode="&#x44e;" horiz-adv-x="1576" d="M143 0v983h162v-418h244q24 198 151 318.5t332 120.5q210 0 330.5 -139t120.5 -359q0 -234 -131 -380t-355 -146q-187 0 -313 116t-139 332h-240v-428h-162zM715 506q0 -184 83 -283.5t234 -99.5q128 0 203.5 102t75.5 250q0 178 -80 281.5t-234 103.5q-130 0 -206 -103 t-76 -251z" />
<glyph unicode="&#x44f;" horiz-adv-x="888" d="M10 0l78 252q38 126 80.5 182t107.5 70q-84 22 -144 84.5t-60 148.5q0 73 31 126.5t85.5 84t122 44.5t148.5 14q134 0 284 -25v-981h-161v432h-111q-89 0 -138 -41t-79 -135l-76 -256h-168zM244 737q0 -79 76.5 -126.5t175.5 -47.5h86v297q-48 10 -133 10 q-205 0 -205 -133z" />
<glyph unicode="&#x451;" horiz-adv-x="1021" d="M92 483q0 146 53 263t160 187.5t252 70.5q168 0 268.5 -109t100.5 -289q0 -73 -17 -143h-647q5 -165 82 -256.5t227 -91.5q140 0 273 82l47 -121q-53 -38 -152 -67t-190 -29q-216 0 -336.5 129t-120.5 374zM256 1294q0 47 29.5 76t76.5 29q51 0 78 -30.5t27 -74.5 q0 -47 -29 -76.5t-76 -29.5q-45 0 -75.5 28.5t-30.5 77.5zM272 592h486q6 122 -55 199t-168 77q-118 0 -187 -84.5t-76 -191.5zM631 1294q0 47 29.5 76t76.5 29q50 0 76.5 -30.5t26.5 -74.5q0 -47 -28.5 -76.5t-74.5 -29.5t-76 28.5t-30 77.5z" />
<glyph unicode="&#x452;" horiz-adv-x="1177" d="M2 1180v131h225v184h162v-184h342v-131h-342v-346q50 81 136.5 125.5t185.5 44.5q168 0 250.5 -93.5t82.5 -287.5v-674q0 -105 -15 -179.5t-50 -130.5t-97 -83t-153 -27q-67 0 -121 22l17 142q65 -21 123 -21q42 0 70 19.5t41.5 56.5t18.5 77t5 95v662q0 139 -48 208.5 t-161 69.5q-84 0 -150 -51.5t-100.5 -133t-34.5 -175.5v-500h-162v1180h-225z" />
<glyph unicode="&#x453;" horiz-adv-x="759" d="M143 0v983h576v-137h-414v-846h-162zM322 1163l229 332l164 -70l-269 -305z" />
<glyph unicode="&#x454;" horiz-adv-x="905" d="M92 473q0 234 140 382.5t364 148.5q110 0 211 -33l-29 -137q-81 36 -205 36q-131 0 -217 -90.5t-100 -220.5h467v-127h-467q2 -138 92.5 -227.5t241.5 -89.5q112 0 221 63l47 -117q-121 -81 -305 -81q-209 0 -335 132.5t-126 360.5z" />
<glyph unicode="&#x455;" horiz-adv-x="851" d="M92 37l33 151q50 -29 127.5 -50t148.5 -21q79 0 141 42t62 105q0 40 -28 72t-73 55t-99.5 44.5t-109 46.5t-99.5 55t-73 76.5t-28 105.5q0 126 104 205.5t257 79.5q139 0 256 -48l-29 -139q-116 49 -248 49q-75 0 -125.5 -35.5t-50.5 -85.5q0 -32 22 -59t58 -46t82 -39 t94 -37.5t94 -43.5t82 -55t58 -73.5t22 -98.5q0 -99 -55.5 -171.5t-142.5 -107t-191 -34.5q-165 0 -289 57z" />
<glyph unicode="&#x456;" horiz-adv-x="450" d="M115 1284q0 48 29.5 78.5t78.5 30.5q52 0 81.5 -32t29.5 -77q0 -49 -30.5 -79.5t-80.5 -30.5q-46 0 -77 29.5t-31 80.5zM143 0v983h162v-983h-162z" />
<glyph unicode="&#x457;" horiz-adv-x="450" d="M-66 1294q0 47 30 76t77 29q50 0 77 -30.5t27 -74.5q0 -47 -29 -76.5t-75 -29.5t-76.5 28.5t-30.5 77.5zM143 0v983h162v-983h-162zM307 1294q0 47 30 76t79 29q50 0 76 -30.5t26 -74.5q0 -47 -28 -76.5t-74 -29.5t-77.5 28.5t-31.5 77.5z" />
<glyph unicode="&#x458;" horiz-adv-x="440" d="M-133 -449l18 144q64 -23 123 -23q76 0 105.5 64t29.5 184v1063h162v-1034q0 -207 -70 -313.5t-243 -106.5q-80 0 -125 22zM115 1284q0 48 29.5 78.5t78.5 30.5q52 0 81.5 -32t29.5 -77q0 -49 -30.5 -79.5t-80.5 -30.5q-46 0 -77 29.5t-31 80.5z" />
<glyph unicode="&#x459;" horiz-adv-x="1538" d="M12 -12l17 145q30 -10 63 -10q45 0 62 61.5t26 194.5l45 604h697v-319h174q189 0 287 -83t98 -231q0 -370 -482 -370q-109 0 -237 22v844h-387l-33 -422q-21 -258 -69.5 -351t-174.5 -93q-40 0 -86 8zM922 127q43 -12 110 -12q47 0 85 5t75 19.5t61.5 38.5t40 63.5 t15.5 92.5q0 98 -63.5 148t-182.5 50h-141v-405z" />
<glyph unicode="&#x45a;" horiz-adv-x="1544" d="M143 0v983h162v-410h461v410h162v-319h180q181 0 279 -84.5t98 -233.5q0 -366 -479 -366q-108 0 -240 22v434h-461v-436h-162zM928 127q44 -12 110 -12q60 0 106.5 10t86.5 33.5t61 67.5t21 108q0 99 -63 148.5t-181 49.5h-141v-405z" />
<glyph unicode="&#x45b;" horiz-adv-x="1177" d="M2 1180v131h225v184h162v-184h342v-131h-342v-346q48 81 134.5 125.5t185.5 44.5q169 0 251 -93t82 -288v-623h-159v582q0 139 -48 208.5t-161 69.5q-84 0 -150 -51.5t-100.5 -133t-34.5 -175.5v-500h-162v1180h-225z" />
<glyph unicode="&#x45c;" horiz-adv-x="915" d="M143 0v983h162v-399l248 274q70 75 129 110.5t123 35.5q65 0 121 -39l-41 -129q-2 1 -6.5 4.5t-6.5 5t-6.5 4t-7 4t-6.5 3.5t-7.5 3t-8 2.5t-9 2t-9.5 1t-11 0.5q-21 0 -50 -20t-49.5 -40t-58.5 -61l-194 -208l452 -537h-198l-404 479v-479h-162zM387 1163l231 332 l162 -70l-268 -305z" />
<glyph unicode="&#x45e;" horiz-adv-x="978" d="M12 983h176l293 -752l324 752h162l-627 -1454h-156l213 496zM193 1448h129q11 -82 54 -126t116 -44q68 0 114 43t56 127h124q-11 -149 -96.5 -226t-210.5 -77q-121 0 -199 79t-87 224z" />
<glyph unicode="&#x45f;" horiz-adv-x="1058" d="M143 0v983h162v-846h447v846h161v-983h-311v-203h-147v203h-312z" />
<glyph unicode="&#x2000;" horiz-adv-x="969" />
<glyph unicode="&#x2001;" horiz-adv-x="1939" />
<glyph unicode="&#x2002;" horiz-adv-x="969" />
<glyph unicode="&#x2003;" horiz-adv-x="1939" />
<glyph unicode="&#x2004;" horiz-adv-x="646" />
<glyph unicode="&#x2005;" horiz-adv-x="484" />
<glyph unicode="&#x2006;" horiz-adv-x="323" />
<glyph unicode="&#x2007;" horiz-adv-x="323" />
<glyph unicode="&#x2008;" horiz-adv-x="242" />
<glyph unicode="&#x2009;" horiz-adv-x="387" />
<glyph unicode="&#x200a;" horiz-adv-x="107" />
<glyph unicode="&#x2010;" d="M113 516v139h530v-139h-530z" />
<glyph unicode="&#x2011;" d="M113 516v139h530v-139h-530z" />
<glyph unicode="&#x2012;" d="M113 516v139h530v-139h-530z" />
<glyph unicode="&#x2013;" horiz-adv-x="1275" d="M123 475v139h1028v-139h-1028z" />
<glyph unicode="&#x2014;" horiz-adv-x="1865" d="M51 475v139h1761v-139h-1761z" />
<glyph unicode="&#x2018;" horiz-adv-x="499" d="M135 975l172 508h129l-117 -508h-184z" />
<glyph unicode="&#x2019;" horiz-adv-x="499" d="M135 975l117 508h184l-172 -508h-129z" />
<glyph unicode="&#x201a;" horiz-adv-x="442" d="M68 -305l116 508h185l-172 -508h-129z" />
<glyph unicode="&#x201c;" horiz-adv-x="788" d="M82 975l174 508h129l-115 -508h-188zM428 975l172 508h129l-117 -508h-184z" />
<glyph unicode="&#x201d;" horiz-adv-x="788" d="M82 975l117 508h184l-172 -508h-129zM426 975l115 508h188l-174 -508h-129z" />
<glyph unicode="&#x201e;" horiz-adv-x="835" d="M115 -305l116 508h185l-172 -508h-129zM459 -305l116 506h185l-172 -506h-129z" />
<glyph unicode="&#x2022;" horiz-adv-x="788" d="M76 748q0 132 93 224.5t224 92.5q132 0 225 -92.5t93 -224.5t-93 -225t-225 -93q-131 0 -224 93t-93 225z" />
<glyph unicode="&#x2026;" horiz-adv-x="1804" d="M188 98q0 51 34.5 86t84.5 35q51 0 86 -35t35 -86q0 -50 -35 -84t-86 -34q-50 0 -84.5 34.5t-34.5 83.5zM782 98q0 51 34.5 86t84.5 35q51 0 86 -35t35 -86q0 -50 -35 -84t-86 -34q-50 0 -84.5 34.5t-34.5 83.5zM1376 98q0 51 34.5 86t84.5 35q51 0 86 -35t35 -86 q0 -50 -35 -84t-86 -34q-50 0 -84.5 34.5t-34.5 83.5z" />
<glyph unicode="&#x202f;" horiz-adv-x="387" />
<glyph unicode="&#x2039;" horiz-adv-x="567" d="M82 573l262 406l119 -49l-193 -357l193 -348l-119 -49z" />
<glyph unicode="&#x203a;" horiz-adv-x="567" d="M102 930l119 49l262 -397l-262 -406l-117 49l191 357z" />
<glyph unicode="&#x205f;" horiz-adv-x="484" />
<glyph unicode="&#x20ac;" horiz-adv-x="1425" d="M25 510l18 133h201q-1 6 -1 18t0.5 27t0.5 21q0 38 4 120h-187l19 132h196q73 239 257.5 386.5t439.5 147.5q188 0 334 -57l-35 -158q-50 23 -140 42t-178 19q-181 0 -311.5 -105.5t-179.5 -274.5h729l-18 -132h-742q-4 -40 -4 -88q0 -61 6 -98h721l-16 -133h-678 q36 -165 161 -271t304 -106q197 0 344 109l65 -138q-177 -124 -434 -124q-110 0 -204 28t-163 76.5t-123.5 117t-89 144.5t-55.5 164h-241z" />
<glyph unicode="&#x2122;" horiz-adv-x="1671" d="M31 1352v129h628v-129h-239v-613h-150v613h-239zM735 739l68 736h184l156 -525l149 525h205l64 -736h-138l-49 557l-145 -520h-158l-149 520l-50 -557h-137z" />
<glyph unicode="&#x25fc;" horiz-adv-x="983" d="M0 0v983h983v-983h-983z" />
</font>
</defs>
</svg>
