<?xml version="1.0" standalone="no"?>
<!DOCTYPE svg PUBLIC "-//W3C//DTD SVG 1.1//EN" "http://www.w3.org/Graphics/SVG/1.1/DTD/svg11.dtd" >
<svg xmlns="http://www.w3.org/2000/svg">
<metadata></metadata>
<defs>
<font id="informaprobold" horiz-adv-x="1064" >
<font-face units-per-em="2048" ascent="1638" descent="-410" />
<missing-glyph horiz-adv-x="471" />
<glyph horiz-adv-x="2048" />
<glyph horiz-adv-x="2048" />
<glyph unicode="&#xd;" horiz-adv-x="2048" />
<glyph unicode=" "  horiz-adv-x="471" />
<glyph unicode="&#x09;" horiz-adv-x="471" />
<glyph unicode="&#xa0;" horiz-adv-x="471" />
<glyph unicode="!" horiz-adv-x="737" d="M184 164q0 76 54 130t131 54q75 0 128.5 -54t53.5 -130t-53.5 -130t-128.5 -54q-77 0 -131 54t-54 130zM190 1475h351l-49 -1006h-252z" />
<glyph unicode="&#x22;" horiz-adv-x="772" d="M41 1495h291l-33 -551h-223zM440 1495h291l-35 -551h-221z" />
<glyph unicode="#" horiz-adv-x="1280" d="M51 307v250h244l18 246h-262v250h281l24 307h250l-24 -307h192l25 307h248l-25 -307h207v-250h-225l-19 -246h244v-250h-262l-23 -307h-248l23 307h-193l-22 -307h-250l22 307h-225zM543 557h194l19 246h-193z" />
<glyph unicode="$" horiz-adv-x="1169" d="M51 1061q0 187 120.5 295.5t328.5 132.5v209h229v-207q144 -8 262 -37l-41 -305q-87 32 -221 49v-319q389 -122 389 -418q0 -197 -121 -316t-325 -153v-238h-228v228q-195 9 -344 51l47 311q48 -21 133 -41t164 -29v361q-63 23 -114.5 47t-105.5 62t-90 81.5t-59.5 104 t-23.5 131.5zM371 1100q0 -87 129 -146v248q-129 -15 -129 -102zM672 281q127 31 127 139q0 78 -127 133v-272z" />
<glyph unicode="%" horiz-adv-x="2002" d="M94 1081q0 179 106 291.5t294 112.5q175 0 275.5 -100t100.5 -279q0 -189 -103.5 -302.5t-281.5 -113.5q-201 0 -296 105t-95 286zM365 1106q0 -227 131 -227q52 0 78 56t26 146q0 100 -29 157.5t-90 57.5q-53 0 -84.5 -54.5t-31.5 -135.5zM473 63l817 1475l232 -131 l-820 -1475zM1133 381q0 179 105.5 291t293.5 112q176 0 276.5 -99.5t100.5 -278.5q0 -189 -103 -302.5t-280 -113.5q-201 0 -297 105.5t-96 285.5zM1405 406q0 -228 131 -228q52 0 78 56.5t26 146.5q0 215 -120 215q-51 0 -83 -55t-32 -135z" />
<glyph unicode="&#x26;" horiz-adv-x="1409" d="M51 408q0 135 89 238t237 132q-112 29 -185 111t-73 196q0 192 144.5 301t412.5 109q126 0 233 -35l-39 -260q-96 29 -211 29q-84 0 -140 -33.5t-56 -95.5q0 -93 72 -137.5t182 -44.5h133v149l319 61v-210h189v-267h-189v-594q-267 -77 -567 -77q-87 0 -167.5 17 t-150.5 52.5t-122 85.5t-81.5 120t-29.5 153zM397 434q0 -66 44.5 -110t106 -61t134.5 -17q78 0 168 22v383h-141q-156 0 -234 -55.5t-78 -161.5z" />
<glyph unicode="'" horiz-adv-x="378" d="M41 1483h297l-37 -510h-225z" />
<glyph unicode="(" horiz-adv-x="712" d="M113 649q0 266 84 530.5t241 491.5l250 -100q-119 -176 -183.5 -412.5t-64.5 -492.5q0 -259 61.5 -503.5t186.5 -438.5l-244 -113q-162 227 -246.5 496t-84.5 542z" />
<glyph unicode=")" horiz-adv-x="712" d="M25 -289q119 176 183 412t64 493q0 260 -61 504.5t-186 438.5l243 112q162 -227 247 -496.5t85 -541.5q0 -265 -84.5 -529.5t-241.5 -492.5z" />
<glyph unicode="*" horiz-adv-x="761" d="M41 1155l63 223l222 -112l-56 229h226l-64 -227l223 110l66 -219l-264 -16l211 -168l-195 -139l-92 223l-96 -228l-191 138l209 174z" />
<glyph unicode="+" horiz-adv-x="1261" d="M98 500v250h408v432h248v-432h409v-250h-409v-432h-248v432h-408z" />
<glyph unicode="," horiz-adv-x="614" d="M57 -334l125 602h338l-198 -602h-265z" />
<glyph unicode="-" horiz-adv-x="757" d="M82 459v225h594v-225h-594z" />
<glyph unicode="." horiz-adv-x="552" d="M82 174q0 80 57.5 137.5t136.5 57.5t136 -57.5t57 -137.5t-57 -137t-136 -57q-80 0 -137 57t-57 137z" />
<glyph unicode="/" horiz-adv-x="991" d="M-20 -221l749 1947l283 -100l-754 -1943z" />
<glyph unicode="0" horiz-adv-x="1265" d="M88 717q0 129 17.5 241t59 212.5t104.5 171t159.5 112t218.5 41.5q531 0 531 -737q0 -124 -17 -234t-57 -211t-101 -174t-155 -116t-213 -43q-547 0 -547 737zM434 758q0 -69 3.5 -126.5t12 -117.5t24.5 -105.5t39.5 -82.5t59 -56.5t80.5 -19.5q178 0 178 467 q0 80 -4.5 146t-17.5 136t-35 117.5t-60 78t-89 30.5q-191 0 -191 -467z" />
<glyph unicode="1" horiz-adv-x="858" d="M27 1354l604 129h57v-1483h-330v1157l-305 -61z" />
<glyph unicode="2" horiz-adv-x="1122" d="M70 1407q211 88 389 88q120 0 215.5 -25t168 -77t111.5 -138.5t39 -203.5q0 -93 -34 -190t-84.5 -176.5t-124.5 -163.5t-136.5 -142t-138.5 -121h565v-258h-962v272q13 13 80.5 74.5t120 111.5t126 129.5t122.5 145.5t84.5 142.5t35.5 136.5q0 28 -3.5 52.5t-17 55.5 t-35.5 53t-63.5 37t-97.5 15q-141 0 -305 -68z" />
<glyph unicode="3" horiz-adv-x="1101" d="M51 33l64 270q85 -33 155.5 -45t163.5 -12q102 0 166 49.5t64 130.5q0 57 -29.5 99t-82 65t-115 34t-136.5 11h-78v258h103q108 0 196 60t88 137q0 68 -54.5 101.5t-149.5 33.5q-135 0 -293 -60l-33 260q61 27 165.5 48.5t186.5 21.5q526 0 526 -365q0 -112 -75 -202 t-178 -121q146 -30 225.5 -120t79.5 -220q0 -145 -79.5 -256.5t-217.5 -171t-310 -59.5q-249 0 -352 53z" />
<glyph unicode="4" horiz-adv-x="1292" d="M57 643l588 832h377v-850h201v-258h-201v-367h-330v367h-594zM350 625h342v499z" />
<glyph unicode="5" horiz-adv-x="1071" d="M51 27l68 274q39 -21 135 -36t168 -15q252 0 252 231q0 85 -51.5 144t-151.5 59q-92 0 -162 -31l-194 56v766h815v-258h-514v-273q62 10 98 10q235 0 370.5 -118t135.5 -314q0 -177 -82.5 -300.5t-224.5 -182.5t-332 -59q-64 0 -126.5 7.5t-100 15.5t-103.5 24z" />
<glyph unicode="6" horiz-adv-x="1187" d="M51 678q0 133 22 249.5t73.5 221.5t129 179.5t196.5 118.5t269 44q184 0 326 -57l-70 -273q-51 20 -81.5 30.5t-87.5 20t-121 9.5q-195 0 -283 -193q-30 -68 -39 -127l6 -4l11 11l15 15t18 14.5t28 18.5q76 43 190 43q227 0 355.5 -133.5t128.5 -357.5 q0 -233 -150 -380.5t-401 -147.5q-271 0 -403 180t-132 518zM401 508q0 -117 56.5 -189.5t150.5 -72.5q84 0 132 65.5t48 155.5q0 114 -52 188t-150 74q-85 0 -135 -67t-50 -154z" />
<glyph unicode="7" horiz-adv-x="1060" d="M51 1217v258h959v-117l-412 -1358h-348l381 1217h-580z" />
<glyph unicode="8" horiz-adv-x="1189" d="M51 403q0 61 21.5 114.5t62 97t85.5 76.5t106 67q-116 60 -180 132t-64 179q0 126 72.5 224t193.5 150t268 52q213 0 350.5 -98.5t137.5 -272.5q0 -103 -65.5 -176t-184.5 -137q63 -29 109.5 -60t89 -74t64.5 -101.5t22 -129.5q0 -96 -44 -182.5t-118.5 -148.5 t-177 -98.5t-215.5 -36.5q-112 0 -208 27t-169 78.5t-114.5 133t-41.5 184.5zM383 426q0 -83 66.5 -134.5t166.5 -51.5q84 0 136.5 46.5t52.5 116.5q0 44 -19 81.5t-57 68.5t-78 53.5t-98 48.5q-170 -104 -170 -229zM416 1114q0 -69 51.5 -116t148.5 -89q77 46 117.5 92 t40.5 103q0 50 -51 90.5t-139 40.5q-74 0 -121 -32t-47 -89z" />
<glyph unicode="9" horiz-adv-x="1187" d="M51 963q0 233 149.5 380.5t401.5 147.5q270 0 402.5 -180.5t132.5 -517.5q0 -133 -22 -249.5t-73.5 -221.5t-129.5 -179.5t-197 -118.5t-269 -44q-185 0 -327 57l69 272q49 -19 81.5 -29.5t89.5 -20t122 -9.5q197 0 281 192q30 68 39 127l-6 4l-11 -11l-15 -15t-18 -14.5 t-28 -18.5q-76 -43 -188 -43q-228 0 -356 133.5t-128 358.5zM397 1004q0 -114 52.5 -188.5t150.5 -74.5q86 0 135 67.5t49 154.5q0 117 -55.5 189.5t-148.5 72.5q-86 0 -134.5 -65.5t-48.5 -155.5z" />
<glyph unicode=":" horiz-adv-x="552" d="M82 174q0 80 57.5 137.5t136.5 57.5t136 -57.5t57 -137.5t-57 -137t-136 -57q-80 0 -137 57t-57 137zM82 809q0 80 57.5 137.5t136.5 57.5t136 -57.5t57 -137.5t-57 -137.5t-136 -57.5t-136.5 57.5t-57.5 137.5z" />
<glyph unicode=";" horiz-adv-x="624" d="M57 -334l125 602h346l-196 -602h-275zM164 809q0 79 57 137t135 58q81 0 138 -57.5t57 -137.5t-57 -137.5t-138 -57.5q-78 0 -135 58t-57 137z" />
<glyph unicode="&#x3c;" horiz-adv-x="1167" d="M127 584v112l807 535l145 -211l-577 -373l559 -405l-160 -213z" />
<glyph unicode="=" horiz-adv-x="1210" d="M98 233v250h1014v-250h-1014zM98 717v250h1014v-250h-1014z" />
<glyph unicode="&#x3e;" horiz-adv-x="1167" d="M127 240l575 372l-557 406l160 213l774 -555v-113l-807 -534z" />
<glyph unicode="?" horiz-adv-x="1163" d="M123 1438q189 57 373 57q147 0 256.5 -35.5t177 -118t67.5 -206.5q0 -69 -22 -128t-58 -100.5t-79 -78.5t-86 -71.5t-78.5 -70.5t-58.5 -84t-23 -104q0 -27 4 -41h-246q-4 50 -4 71q0 71 23 135.5t57 109t73.5 89t73 78.5t56 74.5t22.5 79.5q0 74 -52 102.5t-144 28.5 q-129 0 -289 -60zM301 164q0 76 53.5 130t130.5 54q75 0 129 -54t54 -130t-54 -130t-129 -54q-77 0 -130.5 54t-53.5 130z" />
<glyph unicode="@" horiz-adv-x="2478" d="M102 485q0 133 32.5 261t95 248t163.5 221t230 176.5t301.5 118t371.5 42.5q234 0 433 -68.5t335 -186.5t212.5 -281t76.5 -348q0 -141 -46 -267.5t-128.5 -221.5t-205.5 -150.5t-267 -55.5q-147 0 -225 29.5t-78 99.5v58q-9 -33 -39 -66q-100 -114 -297 -114 q-126 0 -207.5 76t-81.5 190q0 81 33.5 145.5t88 106.5t131 71.5t155 44t168.5 19.5v29q0 100 -137 100q-68 0 -161.5 -21t-158.5 -51l-27 242q77 31 181 51.5t194 20.5q116 0 195.5 -17t138.5 -58.5t87 -115t28 -182.5v-332q0 -41 14.5 -56.5t40.5 -15.5q54 0 99 25 t74 65.5t49.5 93t29 104.5t8.5 103q0 303 -204.5 483.5t-544.5 180.5q-165 0 -301 -41t-229 -112t-157.5 -168t-94 -206t-29.5 -229q0 -380 218.5 -579t608.5 -199q209 0 377 57l39 -258q-201 -69 -457 -69q-278 0 -495 74t-356 208.5t-210.5 318t-71.5 406.5zM1112 285 q0 -34 22 -54t54 -20q72 0 124 67t52 140v18q-112 -3 -182 -42t-70 -109z" />
<glyph unicode="A" horiz-adv-x="1384" d="M-20 0l544 1475h344l537 -1475h-365l-122 360h-494l-119 -360h-325zM520 639h303l-151 453z" />
<glyph unicode="B" horiz-adv-x="1308" d="M154 0v1448q288 47 483 47q106 0 199.5 -23t169.5 -67.5t120.5 -118.5t44.5 -168q0 -60 -19 -111.5t-52 -88t-69 -62t-79 -43.5l-4 -8q132 -23 210.5 -117.5t78.5 -228.5q0 -119 -51 -212t-140 -150.5t-204.5 -87t-249.5 -29.5q-238 0 -438 20zM500 262q58 -6 118 -6 q106 0 179 44.5t73 131.5q0 92 -66.5 146.5t-162.5 54.5q-62 0 -141 -10v-361zM500 889h90q94 0 154.5 50t60.5 132q0 148 -191 148q-41 0 -114 -11v-319z" />
<glyph unicode="C" horiz-adv-x="1255" d="M82 721q0 168 52 309.5t149.5 245t246.5 161.5t334 58q175 0 310 -53l-44 -291q-138 57 -292 57q-98 0 -174 -36t-122 -100.5t-69.5 -147.5t-23.5 -183q0 -134 39 -239t125.5 -170.5t209.5 -65.5q152 0 310 94l102 -245q-86 -63 -207.5 -99t-255.5 -36q-316 0 -503 199 t-187 542z" />
<glyph unicode="D" horiz-adv-x="1447" d="M154 10v1440q66 20 206 32.5t281 12.5q165 0 297 -44.5t227.5 -133.5t147 -229t51.5 -324q0 -172 -47 -314.5t-138 -247.5t-234 -163t-327 -59q-230 0 -464 30zM500 283q62 -17 141 -17q164 0 260 130t96 343q0 222 -93 345.5t-286 123.5q-56 0 -118 -16v-909z" />
<glyph unicode="E" horiz-adv-x="1153" d="M154 0v1475h886v-279h-540v-299h522v-279h-522v-339h551v-279h-897z" />
<glyph unicode="F" horiz-adv-x="1103" d="M154 0v1475h878v-279h-532v-367h499v-278h-499v-551h-346z" />
<glyph unicode="G" horiz-adv-x="1413" d="M82 694q0 126 31 242.5t96 218.5t158 177.5t226.5 119t291.5 43.5q192 0 344 -57l-47 -289q-136 59 -324 59q-190 0 -298.5 -126.5t-108.5 -342.5q0 -211 102 -339t299 -128q53 0 90 21v278h-209v279h557v-787q-176 -83 -471 -83q-164 0 -299 46t-233 134t-151.5 224.5 t-53.5 309.5z" />
<glyph unicode="H" horiz-adv-x="1511" d="M154 0v1475h346v-576h512v576h346v-1475h-346v621h-512v-621h-346z" />
<glyph unicode="I" horiz-adv-x="655" d="M154 0v1475h346v-1475h-346z" />
<glyph unicode="J" horiz-adv-x="833" d="M-16 29l32 274q72 -37 183 -37q85 0 120 55.5t35 167.5v986h346v-947q0 -152 -33.5 -258.5t-102 -169.5t-162.5 -91.5t-224 -28.5q-45 0 -103.5 13.5t-90.5 35.5z" />
<glyph unicode="K" horiz-adv-x="1327" d="M154 0v1475h346v-615l428 615h383l-484 -684l519 -791h-406l-440 690v-690h-346z" />
<glyph unicode="L" horiz-adv-x="1067" d="M154 0v1475h344v-1196h524v-279h-868z" />
<glyph unicode="M" horiz-adv-x="1816" d="M94 0l137 1475h361l313 -967l309 967h371l129 -1475h-330l-38 1026l-328 -963h-281l-282 961l-56 -1024h-305z" />
<glyph unicode="N" horiz-adv-x="1523" d="M154 0v1475h370l539 -967v967h305v-1475h-377l-534 963v-963h-303z" />
<glyph unicode="O" horiz-adv-x="1521" d="M82 725q0 129 25.5 243t80 211t135 167t196.5 109.5t257 39.5q160 0 287 -57t209 -158t125 -236.5t43 -295.5q0 -227 -82 -400.5t-237.5 -270.5t-364.5 -97q-163 0 -291.5 54.5t-212 153.5t-127 235.5t-43.5 301.5zM449 748q0 -134 38.5 -242.5t113.5 -174t175 -65.5 q79 0 138 36.5t93.5 101t51 145.5t16.5 178q0 104 -18.5 189.5t-56 152t-100 103t-146.5 36.5q-68 0 -122 -28t-87.5 -73t-55.5 -106.5t-31 -123.5t-9 -129z" />
<glyph unicode="P" horiz-adv-x="1212" d="M154 0v1462q190 33 444 33q90 0 170 -13t156 -44.5t131 -80t88 -124.5t33 -172q0 -118 -54 -217t-142 -162t-196.5 -98t-222.5 -35h-61v-549h-346zM500 827h73q97 0 166.5 53t69.5 142q0 186 -229 186q-35 0 -80 -10v-371z" />
<glyph unicode="Q" horiz-adv-x="1521" d="M82 725q0 129 25.5 243t80 211t135 167t196.5 109.5t257 39.5q160 0 287 -57t209 -158t125 -236.5t43 -295.5q0 -282 -127 -480t-352 -262q64 -8 133 -51.5t112 -84.5t151 -152l21 -21l-370 -70l-344 359q-281 29 -431.5 227.5t-150.5 511.5zM449 748q0 -134 38.5 -242.5 t113.5 -174t175 -65.5q79 0 138 36.5t93.5 101t51 145.5t16.5 178q0 104 -18.5 189.5t-56 152t-100 103t-146.5 36.5q-67 0 -121 -28t-87.5 -73t-56 -106t-31.5 -123.5t-9 -129.5z" />
<glyph unicode="R" horiz-adv-x="1318" d="M154 0v1452q73 18 195 30.5t237 12.5q81 0 150 -7t137 -23t120.5 -44.5t93.5 -69.5t62.5 -100.5t21.5 -134.5q0 -126 -80 -219t-196 -133q99 -20 151 -91t89 -204l131 -469h-359l-102 381q-14 52 -30.5 87.5t-42 66t-64.5 45t-93 14.5h-75v-594h-346zM500 872h82 q90 0 156.5 50.5t66.5 140.5q0 145 -211 145q-40 0 -94 -8v-328z" />
<glyph unicode="S" horiz-adv-x="1114" d="M78 33l49 313q167 -80 350 -80q100 0 158.5 40t58.5 122q0 43 -34 77.5t-88.5 59.5t-120 51.5t-131 62.5t-120 83t-88.5 122.5t-34 172.5q0 210 151.5 324t419.5 114q135 0 291 -37l-43 -309q-137 59 -276 59q-197 0 -197 -110q0 -38 21 -68.5t56.5 -52t82 -40.5 t97.5 -39t102 -43.5t97.5 -57.5t82 -77t56.5 -107t21 -142q0 -226 -163 -358.5t-420 -132.5q-190 0 -379 53z" />
<glyph unicode="T" d="M0 1196v279h1065v-279h-358v-1196h-349v1196h-358z" />
<glyph unicode="U" horiz-adv-x="1417" d="M133 477v998h346v-930q0 -24 3 -51t17.5 -70.5t38.5 -76t72 -57t113 -24.5q57 0 101.5 15t70.5 42.5t43 55.5t24 64.5t9 58.5t2 47v926h317v-916q0 -272 -144.5 -425.5t-430.5 -153.5q-101 0 -187 17t-159.5 55t-125.5 95t-81 141t-29 189z" />
<glyph unicode="V" horiz-adv-x="1312" d="M-20 1475h372l334 -1051l326 1051h321l-504 -1475h-319z" />
<glyph unicode="W" horiz-adv-x="1906" d="M8 1475h365l205 -969l262 969h264l246 -969l221 969h327l-393 -1475h-321l-228 918l-223 -918h-321z" />
<glyph unicode="X" horiz-adv-x="1277" d="M-20 0l464 766l-424 709h394l250 -414l245 414h346l-424 -699l465 -776h-393l-289 481l-288 -481h-346z" />
<glyph unicode="Y" horiz-adv-x="1150" d="M-45 1475h393l256 -529l258 529h332l-434 -863v-612h-346v571z" />
<glyph unicode="Z" horiz-adv-x="1148" d="M61 0v135l541 1053h-514v287h956v-142l-540 -1046h583v-287h-1026z" />
<glyph unicode="[" horiz-adv-x="675" d="M98 -328v1966h523v-256h-228v-1454h228v-256h-523z" />
<glyph unicode="\" horiz-adv-x="923" d="M-47 1626l283 100l749 -1947l-280 -96z" />
<glyph unicode="]" horiz-adv-x="673" d="M55 -72h226v1454h-226v256h520v-1966h-520v256z" />
<glyph unicode="^" horiz-adv-x="1146" d="M61 702l392 773h241l391 -773h-276l-236 478l-237 -478h-275z" />
<glyph unicode="_" horiz-adv-x="778" d="M-20 -90v180h819v-180h-819z" />
<glyph unicode="`" horiz-adv-x="626" d="M51 1380l266 113l258 -334l-210 -67z" />
<glyph unicode="a" d="M53 246q0 81 33.5 145.5t88 106.5t131 71.5t155 44t168.5 19.5v29q0 100 -137 100q-68 0 -161.5 -21t-158.5 -51l-27 242q77 31 181 51.5t194 20.5q116 0 195.5 -17t138 -58.5t86 -115t27.5 -182.5v-631h-303v35q0 52 22 121l-8 4q-2 -4 -7 -15t-8 -17t-10 -15.5 t-16 -18.5q-100 -114 -297 -114q-125 0 -206 76t-81 190zM387 285q0 -34 21 -54t53 -20q73 0 124.5 66.5t51.5 140.5v18q-111 -3 -180.5 -42.5t-69.5 -108.5z" />
<glyph unicode="b" horiz-adv-x="1155" d="M113 29v1446h329v-570q45 43 114.5 71t141.5 28q179 0 287.5 -118.5t108.5 -350.5q0 -274 -155 -414.5t-419 -140.5q-107 0 -220.5 13t-186.5 36zM442 266q56 -20 119 -20q93 0 140 70t47 178q0 47 -4 82.5t-16 74.5t-39 60.5t-68 21.5q-78 0 -128.5 -66t-50.5 -171v-230 z" />
<glyph unicode="c" horiz-adv-x="897" d="M61 461q0 245 157 394t409 149q98 0 209 -35l-52 -273q-101 37 -176 37q-94 0 -147 -66t-53 -165q0 -116 56 -184t163 -68q92 0 166 35l69 -228q-47 -33 -127.5 -55t-167.5 -22q-231 0 -368.5 127t-137.5 354z" />
<glyph unicode="d" horiz-adv-x="1153" d="M61 459q0 82 22 161t67 148.5t108.5 122t152.5 83t193 30.5q39 0 107 -11v482h329v-1475h-327v98q-44 -54 -112.5 -86t-137.5 -32q-197 0 -299.5 127t-102.5 352zM408 498q0 -248 131 -248q67 0 119.5 70.5t52.5 201.5v189q-49 22 -115 22q-87 0 -137.5 -68t-50.5 -167z " />
<glyph unicode="e" horiz-adv-x="1073" d="M61 477q0 244 145 385.5t378 141.5q191 0 305.5 -109.5t114.5 -290.5q0 -99 -19 -215h-590q6 -81 69.5 -126.5t162.5 -45.5q65 0 142.5 17.5t131.5 46.5l82 -209q-67 -36 -171.5 -64t-215.5 -28q-119 0 -215.5 30t-168.5 89.5t-111.5 156t-39.5 221.5zM395 608h291 q2 14 2 26q0 55 -28 93q-34 47 -105 47t-113 -49t-47 -117z" />
<glyph unicode="f" horiz-adv-x="759" d="M16 725v258h185v68q0 95 21 173t65 140t120 96.5t179 34.5q143 0 223 -35l-43 -254q-63 19 -107 19q-129 0 -129 -131v-111h228v-258h-228v-725h-329v725h-185z" />
<glyph unicode="g" horiz-adv-x="1118" d="M61 467q0 152 74 274.5t205.5 192.5t294.5 70q210 0 381 -52v-893q0 -260 -150 -395t-417 -135q-82 0 -170.5 16.5t-149.5 40.5l51 277q144 -64 289 -64q109 0 162 48.5t53 175.5v94q-36 -43 -102.5 -71t-137.5 -28q-191 0 -287 117.5t-96 331.5zM408 508 q0 -219 102 -219q41 0 72.5 19.5t49.5 53.5t29.5 68t16 76.5t5.5 63.5t1 44v111q-40 8 -70 8q-105 0 -155.5 -60t-50.5 -165z" />
<glyph unicode="h" horiz-adv-x="1161" d="M113 0v1475h329v-572q46 49 122.5 75t148.5 26q101 0 170 -26t108 -80.5t55.5 -129t16.5 -180.5v-588h-330v530q0 104 -25 153.5t-96 49.5q-83 0 -126.5 -68.5t-43.5 -177.5v-487h-329z" />
<glyph unicode="i" horiz-adv-x="557" d="M84 1296q0 80 52.5 134.5t139.5 54.5q85 0 140 -52t55 -137t-55 -135.5t-140 -50.5q-82 0 -137 50.5t-55 135.5zM113 0v983h329v-983h-329z" />
<glyph unicode="j" horiz-adv-x="546" d="M-141 -444l37 262q65 -19 120 -19q53 0 75 50.5t22 148.5v985h329v-944q0 -248 -111 -379t-335 -131q-75 0 -137 27zM84 1296q0 80 52.5 134.5t139.5 54.5q85 0 140 -52t55 -137t-55 -135.5t-140 -50.5q-82 0 -137 50.5t-55 135.5z" />
<glyph unicode="k" horiz-adv-x="1091" d="M113 0v1475h329v-863l314 371h348l-354 -410l372 -573h-374l-306 469v-469h-329z" />
<glyph unicode="l" horiz-adv-x="555" d="M113 0v1475h329v-1475h-329z" />
<glyph unicode="m" horiz-adv-x="1738" d="M113 0v983h315v-123q53 67 126 105.5t151 38.5q215 0 280 -160q129 160 322 160q54 0 98.5 -9.5t89.5 -36.5t75.5 -71t50 -117.5t19.5 -171.5v-598h-329v543q0 43 -4 73.5t-15 59t-34 43t-58 14.5q-71 0 -114.5 -92t-43.5 -201v-440h-329v545q0 42 -4 72.5t-15 58.5 t-33.5 42.5t-56.5 14.5q-73 0 -117.5 -81t-44.5 -212v-440h-329z" />
<glyph unicode="n" horiz-adv-x="1157" d="M113 0v983h327v-113q44 60 123 97t176 37q91 0 155.5 -31.5t99.5 -90t50 -128.5t15 -160v-594h-328v543q0 100 -24 145t-86 45q-78 0 -128.5 -71t-50.5 -193v-469h-329z" />
<glyph unicode="o" horiz-adv-x="1132" d="M61 467q0 245 137.5 391t379.5 146q123 0 218.5 -38t154.5 -105.5t89.5 -155.5t30.5 -193q0 -256 -139 -394t-371 -138q-105 0 -194 29.5t-158.5 87.5t-108.5 153t-39 217zM408 512q0 -262 170 -262q147 0 147 217q0 51 -3.5 88t-14 72.5t-28.5 57.5t-47.5 35t-70.5 13 q-74 0 -113.5 -63t-39.5 -158z" />
<glyph unicode="p" horiz-adv-x="1138" d="M113 -471v1454h331v-98q41 57 105 88t139 31q105 0 182 -38.5t121 -106.5t65 -151.5t21 -183.5q0 -255 -147 -399.5t-385 -144.5q-21 0 -103 8v-459h-329zM442 268q52 -18 123 -18q76 0 120 64t44 169q0 52 -5 92t-17.5 78t-39 59t-65.5 21q-76 0 -118 -62.5t-42 -166.5 v-236z" />
<glyph unicode="q" horiz-adv-x="1134" d="M61 440q0 261 158.5 412.5t425.5 151.5q163 0 377 -56v-1419h-330v549q-42 -48 -108 -73t-142 -25q-176 0 -278.5 116t-102.5 344zM408 481q0 -100 27 -165.5t87 -65.5q81 0 125.5 89.5t44.5 250.5v127q-46 16 -78 16q-105 0 -155.5 -69.5t-50.5 -182.5z" />
<glyph unicode="r" horiz-adv-x="774" d="M113 0v983h327v-119q82 140 254 140q55 0 109 -21l-53 -319q-58 24 -105 24q-49 0 -85.5 -14t-58.5 -37t-35.5 -57.5t-18.5 -70t-5 -79.5v-430h-329z" />
<glyph unicode="s" horiz-adv-x="888" d="M66 662q0 87 34.5 154t95.5 107.5t138.5 60.5t169.5 20q110 0 268 -43l-35 -263q-56 26 -132.5 43t-129.5 17q-98 0 -98 -58q0 -23 33.5 -41.5t83.5 -31t108 -35t108 -51t83.5 -83t33.5 -126.5q0 -76 -23.5 -136t-64.5 -100t-99 -66.5t-124.5 -38t-144.5 -11.5t-165 15 t-130 36l37 260q57 -26 137.5 -45t146.5 -19q47 0 83 16.5t36 49.5q0 24 -33.5 43.5t-83.5 33t-108 37t-108 52.5t-83.5 81.5t-33.5 121.5z" />
<glyph unicode="t" horiz-adv-x="786" d="M4 725v258h172v258l330 62v-320h244v-258h-244v-326q0 -75 20 -112t78 -37q41 0 131 35l41 -242q-52 -28 -127.5 -45.5t-148.5 -17.5q-324 0 -324 378v367h-172z" />
<glyph unicode="u" horiz-adv-x="1150" d="M98 346v637h330v-594q0 -76 17.5 -109.5t66.5 -33.5q66 0 111 48t64.5 123.5t19.5 174.5v391h331v-983h-331v125q-53 -72 -128 -108.5t-155 -36.5q-165 0 -245.5 88.5t-80.5 277.5z" />
<glyph unicode="v" horiz-adv-x="1048" d="M-16 983h356l203 -608l196 608h326l-381 -983h-330z" />
<glyph unicode="w" horiz-adv-x="1603" d="M10 983h365l147 -594l162 594h330l174 -594l137 594h268l-272 -983h-350l-162 567l-135 -567h-346z" />
<glyph unicode="x" horiz-adv-x="997" d="M-31 0l350 508l-319 475h367l159 -233l152 233h319l-319 -463l350 -520h-366l-189 279l-184 -279h-320z" />
<glyph unicode="y" horiz-adv-x="1048" d="M-16 983h356l203 -608l196 608h326l-381 -983l-184 -471l-289 -2l164 420z" />
<glyph unicode="z" horiz-adv-x="909" d="M37 82l362 643h-329v258h755l15 -92l-357 -633h385v-258h-805z" />
<glyph unicode="{" horiz-adv-x="821" d="M119 600v111q38 10 65 24t44.5 36t27.5 43.5t15 58t6.5 67.5t1.5 82v225q0 147 100.5 239.5t275.5 121.5l84 -224q-97 -14 -132.5 -71.5t-35.5 -171.5v-150q0 -125 -31 -197t-126 -139q92 -65 124.5 -136t32.5 -200v-149q0 -55 11.5 -96t26.5 -62.5t41.5 -36.5t43 -19 t45.5 -9l-84 -244q-80 11 -146.5 38t-119 70t-81.5 107.5t-29 144.5v226q0 152 -32.5 221t-127.5 90z" />
<glyph unicode="|" horiz-adv-x="641" d="M184 -328v1966h273v-1966h-273z" />
<glyph unicode="}" horiz-adv-x="823" d="M82 -74q97 14 132.5 72t35.5 172v149q0 124 31.5 196.5t126.5 139.5q-92 66 -125 137t-33 199v150q0 55 -11.5 96t-26.5 62.5t-41.5 36.5t-43 19t-45.5 9l84 244q80 -11 146.5 -38t119 -70t82 -108t29.5 -145v-225q0 -152 32.5 -221t126.5 -90v-111q-32 -8 -56.5 -20.5 t-41.5 -26.5t-28.5 -36.5t-18 -43t-9.5 -53.5t-4 -60t-1 -71v-226q0 -147 -101 -239t-276 -121z" />
<glyph unicode="~" horiz-adv-x="1206" d="M70 426q0 159 72.5 247.5t197.5 88.5q60 0 134.5 -24t132.5 -53t125 -53t114 -24q56 0 83 33.5t27 83.5v8h174q-1 -96 -22 -164.5t-58.5 -105.5t-81.5 -53.5t-98 -16.5q-67 0 -145.5 24t-137 53t-123 53t-106.5 24q-112 0 -112 -121h-176z" />
<glyph unicode="&#xa2;" horiz-adv-x="1019" d="M51 709q0 213 123.5 348t333.5 176v242h221v-228q101 -5 217 -35l-49 -258q-76 26 -168 35v-506q77 7 168 45l72 -225q-113 -55 -240 -72v-231h-221v231q-216 27 -336.5 149t-120.5 329zM377 748q0 -178 131 -236v453q-131 -59 -131 -217z" />
<glyph unicode="&#xa3;" horiz-adv-x="1150" d="M51 602v258h170q-4 74 -4 113q0 237 147.5 379.5t426.5 142.5q146 0 280 -43l-45 -274q-123 47 -264 47q-110 0 -153.5 -51.5t-43.5 -159.5q0 -69 10 -154h312v-258h-281q4 -54 4 -80q0 -79 -23 -148.5t-63 -115.5h576v-258h-905l-58 184q65 78 97 142t32 155 q0 43 -10 121h-205z" />
<glyph unicode="&#xa5;" horiz-adv-x="1323" d="M51 1475h393l244 -471l250 471h334l-369 -699h332v-188h-389v-180h389v-189h-389v-219h-346v219h-412v189h412v180h-412v188h334z" />
<glyph unicode="&#xa8;" horiz-adv-x="892" d="M51 1284q0 72 47.5 120t122.5 48q77 0 124.5 -46t47.5 -122q0 -74 -48 -120t-124 -46q-71 0 -120.5 46t-49.5 120zM496 1284q0 72 47 120t125 48q75 0 124.5 -46.5t49.5 -121.5q0 -74 -50 -120t-124 -46t-123 45.5t-49 120.5z" />
<glyph unicode="&#xa9;" horiz-adv-x="1720" d="M49 717q0 166 61 315t166.5 258t257.5 173.5t326 64.5q177 0 330.5 -65.5t257.5 -176.5t163.5 -258.5t59.5 -310.5q0 -170 -61.5 -320t-168.5 -258t-258 -170.5t-323 -62.5q-176 0 -327.5 63t-257.5 171t-166 257.5t-60 319.5zM258 717q0 -175 82.5 -314t219.5 -213.5 t300 -74.5q172 0 309.5 77.5t215 215t77.5 309.5q0 168 -75 305t-213.5 217t-313.5 80q-176 0 -314.5 -81.5t-213 -218t-74.5 -302.5zM467 694q0 212 134 341.5t349 129.5q62 0 180 -35l-47 -245q-4 2 -20.5 9t-23.5 10t-22 9t-25 8.5t-24.5 4.5t-27.5 2q-84 0 -126 -54.5 t-42 -138.5q0 -96 46 -153.5t132 -57.5q68 0 137 35l60 -205q-34 -28 -102.5 -47.5t-143.5 -19.5q-200 0 -317 106.5t-117 300.5z" />
<glyph unicode="&#xab;" horiz-adv-x="1028" d="M51 573l246 422l215 -61l-164 -361l168 -348l-219 -71zM500 573l237 422l219 -61l-159 -361l159 -348l-219 -71z" />
<glyph unicode="&#xad;" horiz-adv-x="757" d="M82 459v225h594v-225h-594z" />
<glyph unicode="&#xae;" horiz-adv-x="1574" d="M86 1096q0 139 51.5 265t142 220t221 149.5t279.5 55.5q153 0 284.5 -57t220.5 -152.5t139.5 -221.5t50.5 -263q0 -145 -53 -273.5t-145 -221t-221.5 -146.5t-275.5 -54q-153 0 -284 56t-220 151t-139.5 223t-50.5 269zM289 1092q0 -213 143.5 -353.5t347.5 -140.5 q213 0 352.5 142.5t139.5 355.5q0 208 -137.5 349.5t-354.5 141.5q-215 0 -353 -141t-138 -354zM483 756v669q113 21 244 21q57 0 100 -3.5t89.5 -14.5t76 -30t49 -52.5t19.5 -79.5q0 -102 -146 -156q55 -8 83.5 -43t50.5 -98l63 -213h-227l-54 172q-26 84 -96 84h-26v-256 h-226zM709 1171h26q33 0 61.5 16t28.5 48q0 14 -7 23t-21 12.5t-27 4.5t-35 1h-26v-105z" />
<glyph unicode="&#xb4;" horiz-adv-x="614" d="M51 1159l256 336l256 -115l-309 -288z" />
<glyph unicode="&#xb8;" horiz-adv-x="575" d="M51 -408l66 132q61 -17 94 -17q68 0 68 47q0 33 -48 51.5t-131 18.5l109 182l184 -2l-47 -80q78 -14 128 -58t50 -106q0 -53 -26.5 -95.5t-68 -66.5t-87 -36.5t-88.5 -12.5q-106 0 -203 43z" />
<glyph unicode="&#xbb;" horiz-adv-x="1028" d="M72 215l159 360l-159 349l219 71l237 -420l-237 -421zM510 924l221 71l246 -420l-246 -421l-213 61l162 360z" />
<glyph unicode="&#x2c6;" horiz-adv-x="829" d="M51 1229l373 278l354 -260l-112 -170l-256 148l-260 -148z" />
<glyph unicode="&#x2da;" horiz-adv-x="673" d="M51 1296q0 104 81.5 168t219.5 64q122 0 196.5 -59t74.5 -156q0 -232 -299 -232q-119 0 -196 54t-77 161zM252 1309q0 -36 24.5 -57t63.5 -21q33 0 56.5 18t23.5 51q0 36 -23.5 56t-62.5 20q-36 0 -59 -18t-23 -49z" />
<glyph unicode="&#x2dc;" horiz-adv-x="897" d="M51 1167q12 123 91 209t194 86q44 0 83.5 -16.5t63.5 -36.5t52.5 -36.5t52.5 -16.5q33 0 47.5 23.5t23.5 72.5l187 -47q-18 -139 -87 -217t-192 -78q-39 0 -77.5 17t-63.5 37.5t-54 37.5t-53 17q-40 0 -55.5 -25t-25.5 -72z" />
<glyph unicode="&#x401;" horiz-adv-x="1153" d="M154 0v1475h886v-279h-540v-299h522v-279h-522v-339h551v-279h-897zM176 1741q0 67 48 115.5t116 48.5t116 -48.5t48 -115.5q0 -66 -48.5 -115t-115.5 -49t-115.5 49t-48.5 115zM688 1741q0 67 48 115.5t114 48.5q68 0 117 -48.5t49 -115.5q0 -66 -49.5 -115t-116.5 -49 q-66 0 -114 49t-48 115z" />
<glyph unicode="&#x402;" horiz-adv-x="1517" d="M0 1196v279h1130v-279h-407v-270h166q269 0 430.5 -110.5t161.5 -315.5q0 -107 -40.5 -199.5t-118.5 -165t-205.5 -114t-289.5 -41.5l47 288q106 5 171 56.5t65 140.5q0 87 -65.5 134.5t-186.5 47.5h-135v-647h-346v1196h-377z" />
<glyph unicode="&#x403;" horiz-adv-x="1067" d="M154 0v1475h868v-279h-524v-1196h-344zM389 1694l385 252l176 -197l-434 -197z" />
<glyph unicode="&#x404;" horiz-adv-x="1255" d="M82 721q0 168 52 309.5t149.5 245t246.5 161.5t334 58q175 0 310 -53l-44 -291q-138 57 -292 57q-155 0 -248 -83.5t-125 -227.5h559v-279h-565q26 -161 117.5 -256.5t246.5 -95.5q152 0 310 94l102 -245q-86 -63 -207.5 -99t-255.5 -36q-316 0 -503 199t-187 542z" />
<glyph unicode="&#x405;" horiz-adv-x="1114" d="M78 33l49 313q167 -80 350 -80q100 0 158.5 40t58.5 122q0 43 -34 77.5t-88.5 59.5t-120 51.5t-131 62.5t-120 83t-88.5 122.5t-34 172.5q0 210 151.5 324t419.5 114q135 0 291 -37l-43 -309q-137 59 -276 59q-197 0 -197 -110q0 -38 21 -68.5t56.5 -52t82 -40.5 t97.5 -39t102 -43.5t97.5 -57.5t82 -77t56.5 -107t21 -142q0 -226 -163 -358.5t-420 -132.5q-190 0 -379 53z" />
<glyph unicode="&#x406;" horiz-adv-x="655" d="M154 0v1475h346v-1475h-346z" />
<glyph unicode="&#x407;" horiz-adv-x="653" d="M-92 1741q0 67 48 115.5t116 48.5q66 0 115 -48.5t49 -115.5q0 -66 -49 -115t-115 -49q-67 0 -115.5 49t-48.5 115zM154 0v1475h346v-1475h-346zM420 1741q0 67 48 115.5t116 48.5q65 0 113 -48.5t48 -115.5q0 -66 -48 -115t-113 -49q-67 0 -115.5 49t-48.5 115z" />
<glyph unicode="&#x408;" horiz-adv-x="833" d="M-16 29l32 274q72 -37 183 -37q85 0 120 55.5t35 167.5v986h346v-947q0 -152 -33.5 -258.5t-102 -169.5t-162.5 -91.5t-224 -28.5q-45 0 -103.5 13.5t-90.5 35.5z" />
<glyph unicode="&#x409;" horiz-adv-x="2011" d="M-16 -10l39 280q46 -4 67 -4q83 0 116.5 54t39.5 169l61 986h971v-549h143q133 0 240.5 -39.5t174.5 -105t102.5 -147.5t35.5 -171q0 -92 -38.5 -177t-110.5 -154t-189 -110.5t-262 -41.5q-260 0 -444 32v1184h-299l-47 -756q-17 -254 -136.5 -357t-377.5 -103 q-34 0 -86 10zM1278 276q45 -10 78 -10q116 0 181 59.5t65 139.5q0 74 -56.5 128t-154.5 54h-113v-371z" />
<glyph unicode="&#x40a;" horiz-adv-x="2091" d="M154 0v1475h346v-576h512v576h346v-576h143q134 0 241.5 -37.5t174 -100.5t102 -143t35.5 -169q0 -92 -38 -175t-110.5 -149.5t-188.5 -105.5t-261 -39q-260 0 -444 32v609h-512v-621h-346zM1358 276q45 -10 80 -10q117 0 180 53t63 132q0 73 -55.5 121.5t-155.5 48.5 h-112v-345z" />
<glyph unicode="&#x40b;" horiz-adv-x="1533" d="M0 1196v279h1128v-279h-405v-375q54 50 142 75.5t177 25.5q110 0 186.5 -26t122 -80.5t65.5 -129.5t20 -180v-506h-328v449q0 102 -35.5 152t-126.5 50q-102 0 -162.5 -63t-60.5 -162v-426h-346v1196h-377z" />
<glyph unicode="&#x40c;" horiz-adv-x="1327" d="M154 0v1475h346v-615l334 483q103 150 284 150q117 0 232 -59l-56 -234q-44 29 -84 29q-75 0 -131 -80l-252 -358l519 -791h-406l-440 690v-690h-346zM518 1694l385 252l176 -197l-434 -197z" />
<glyph unicode="&#x40e;" horiz-adv-x="1296" d="M-20 1475h366l297 -568l307 568h367l-807 -1475h-367l326 594zM315 1917h228q5 -63 32 -104t82 -41q97 0 115 145h227q-12 -169 -106.5 -269t-255.5 -100q-146 0 -230 102.5t-92 266.5z" />
<glyph unicode="&#x40f;" horiz-adv-x="1482" d="M154 0v1475h346v-1196h481v1196h346v-1475h-434v-362h-305v362h-434z" />
<glyph unicode="&#x410;" horiz-adv-x="1384" d="M-20 0l544 1475h344l537 -1475h-365l-122 360h-494l-119 -360h-325zM520 639h303l-151 453z" />
<glyph unicode="&#x411;" horiz-adv-x="1232" d="M154 12v1463h913v-279h-567v-270h143q133 0 240.5 -39.5t174.5 -105t102.5 -147.5t35.5 -171q0 -92 -38.5 -177t-110.5 -154t-189 -110.5t-262 -41.5q-258 0 -442 32zM500 276q45 -10 78 -10q116 0 180.5 59.5t64.5 139.5q0 74 -56 128t-155 54h-112v-371z" />
<glyph unicode="&#x412;" horiz-adv-x="1308" d="M154 0v1448q288 47 483 47q106 0 199.5 -23t169.5 -67.5t120.5 -118.5t44.5 -168q0 -60 -19 -111.5t-52 -88t-69 -62t-79 -43.5l-4 -8q132 -23 210.5 -117.5t78.5 -228.5q0 -119 -51 -212t-140 -150.5t-204.5 -87t-249.5 -29.5q-238 0 -438 20zM500 262q58 -6 118 -6 q106 0 179 44.5t73 131.5q0 92 -66.5 146.5t-162.5 54.5q-62 0 -141 -10v-361zM500 889h90q94 0 154.5 50t60.5 132q0 148 -191 148q-41 0 -114 -11v-319z" />
<glyph unicode="&#x413;" horiz-adv-x="1067" d="M154 0v1475h868v-279h-524v-1196h-344z" />
<glyph unicode="&#x414;" horiz-adv-x="1587" d="M43 279l80 2q82 1 115.5 53.5t40.5 154.5l61 986h969v-1196h235v-641h-305v362h-891v-362h-305v641zM549 279h414v917h-299l-48 -756q-4 -53 -17.5 -91t-49.5 -70z" />
<glyph unicode="&#x415;" horiz-adv-x="1153" d="M154 0v1475h886v-279h-540v-299h522v-279h-522v-339h551v-279h-897z" />
<glyph unicode="&#x416;" horiz-adv-x="1996" d="M-25 1434q118 59 234 59q178 0 283 -150l333 -483v635h346v-635l336 483q103 150 283 150q113 0 231 -59l-55 -234q-44 29 -84 29q-75 0 -131 -80l-252 -358l518 -791h-405l-441 690v-690h-346v690l-440 -690h-405l518 791l-252 358q-56 80 -131 80q-41 0 -84 -29z" />
<glyph unicode="&#x417;" horiz-adv-x="1101" d="M51 33l64 270q85 -33 155.5 -45t163.5 -12q102 0 165 49.5t63 130.5q0 57 -29.5 99t-81.5 65t-114 34t-136 11h-78v258h103q108 0 196 60t88 137q0 68 -54.5 101.5t-149.5 33.5q-135 0 -293 -60l-33 260q61 27 165.5 48.5t186.5 21.5q529 0 529 -365q0 -112 -76 -202 t-180 -121q146 -30 225.5 -120t79.5 -220q0 -145 -79.5 -256.5t-217.5 -171t-310 -59.5q-249 0 -352 53z" />
<glyph unicode="&#x418;" horiz-adv-x="1523" d="M154 0v1475h305v-967l538 967h371v-1475h-303v963l-535 -963h-376z" />
<glyph unicode="&#x419;" horiz-adv-x="1523" d="M154 0v1475h305v-967l538 967h371v-1475h-303v963l-535 -963h-376zM420 1917h227q3 -61 31 -103t82 -42q99 0 117 145h225q-11 -169 -106.5 -269t-256.5 -100q-146 0 -228.5 102t-90.5 267z" />
<glyph unicode="&#x41a;" horiz-adv-x="1327" d="M154 0v1475h346v-615l334 483q103 150 284 150q117 0 232 -59l-56 -234q-44 29 -84 29q-75 0 -131 -80l-252 -358l519 -791h-406l-440 690v-690h-346z" />
<glyph unicode="&#x41b;" horiz-adv-x="1431" d="M-16 -10l39 280q46 -4 67 -4q83 0 116.5 54t39.5 169l61 986h971v-1475h-348v1196h-299l-47 -756q-17 -254 -136.5 -357t-377.5 -103q-34 0 -86 10z" />
<glyph unicode="&#x41c;" horiz-adv-x="1816" d="M94 0l137 1475h361l313 -967l309 967h371l129 -1475h-330l-38 1026l-328 -963h-281l-282 961l-56 -1024h-305z" />
<glyph unicode="&#x41d;" horiz-adv-x="1511" d="M154 0v1475h346v-576h512v576h346v-1475h-346v621h-512v-621h-346z" />
<glyph unicode="&#x41e;" horiz-adv-x="1521" d="M82 725q0 129 25.5 243t80 211t135 167t196.5 109.5t257 39.5q160 0 287 -57t209 -158t125 -236.5t43 -295.5q0 -227 -82 -400.5t-237.5 -270.5t-364.5 -97q-163 0 -291.5 54.5t-212 153.5t-127 235.5t-43.5 301.5zM449 748q0 -134 38.5 -242.5t113.5 -174t175 -65.5 q79 0 138 36.5t93.5 101t51 145.5t16.5 178q0 104 -18.5 189.5t-56 152t-100 103t-146.5 36.5q-68 0 -122 -28t-87.5 -73t-55.5 -106.5t-31 -123.5t-9 -129z" />
<glyph unicode="&#x41f;" horiz-adv-x="1480" d="M154 0v1475h1173v-1475h-346v1196h-481v-1196h-346z" />
<glyph unicode="&#x420;" horiz-adv-x="1212" d="M154 0v1462q190 33 444 33q90 0 170 -13t156 -44.5t131 -80t88 -124.5t33 -172q0 -118 -54 -217t-142 -162t-196.5 -98t-222.5 -35h-61v-549h-346zM500 827h73q97 0 166.5 53t69.5 142q0 186 -229 186q-35 0 -80 -10v-371z" />
<glyph unicode="&#x421;" horiz-adv-x="1255" d="M82 721q0 168 52 309.5t149.5 245t246.5 161.5t334 58q175 0 310 -53l-44 -291q-138 57 -292 57q-98 0 -174 -36t-122 -100.5t-69.5 -147.5t-23.5 -183q0 -134 39 -239t125.5 -170.5t209.5 -65.5q152 0 310 94l102 -245q-86 -63 -207.5 -99t-255.5 -36q-316 0 -503 199 t-187 542z" />
<glyph unicode="&#x422;" d="M0 1196v279h1065v-279h-358v-1196h-349v1196h-358z" />
<glyph unicode="&#x423;" horiz-adv-x="1269" d="M-35 1475h367l297 -568l307 568h367l-807 -1475h-367l326 594z" />
<glyph unicode="&#x424;" horiz-adv-x="1681" d="M51 702q0 139 45.5 245.5t129.5 175t194 107.5t248 52v213h346v-213q147 -13 258 -49.5t192.5 -100.5t123.5 -162.5t42 -228.5q0 -99 -32 -182.5t-88.5 -144.5t-135 -107t-168 -73t-192.5 -39v-215h-346v215q-273 32 -445 167.5t-172 339.5zM397 741q0 -103 69 -171.5 t202 -88.5v508q-137 -24 -204 -83t-67 -165zM1014 481q127 11 198.5 67.5t71.5 156.5q0 132 -65.5 196t-204.5 88v-508z" />
<glyph unicode="&#x425;" horiz-adv-x="1277" d="M-20 0l464 766l-424 709h394l250 -414l245 414h346l-424 -699l465 -776h-393l-289 481l-288 -481h-346z" />
<glyph unicode="&#x426;" horiz-adv-x="1607" d="M154 0v1475h346v-1196h481v1196h346v-1196h236v-641h-306v362h-1103z" />
<glyph unicode="&#x427;" horiz-adv-x="1382" d="M72 1051v424h346v-357q0 -132 71.5 -207t198.5 -75q106 0 223 47v592h316v-1475h-316v594q-112 -41 -256 -41q-127 0 -230.5 28t-184 86t-124.5 155.5t-44 228.5z" />
<glyph unicode="&#x428;" horiz-adv-x="1980" d="M154 0v1475h346v-1196h317v1196h346v-1196h318v1196h346v-1475h-1673z" />
<glyph unicode="&#x429;" horiz-adv-x="2107" d="M154 0v1475h346v-1196h317v1196h346v-1196h318v1196h346v-1196h235v-641h-307v362h-1601z" />
<glyph unicode="&#x42a;" horiz-adv-x="1437" d="M0 1196v279h707v-549h143q133 0 240 -39.5t173.5 -105t102 -147.5t35.5 -171q0 -92 -38 -177t-110 -154t-188.5 -110.5t-261.5 -41.5q-257 0 -445 32v1184h-358zM707 276q45 -10 77 -10q117 0 181.5 59.5t64.5 139.5q0 74 -56.5 128t-154.5 54h-112v-371z" />
<glyph unicode="&#x42b;" horiz-adv-x="1888" d="M154 12v1463h346v-549h143q133 0 240.5 -39.5t174.5 -105t102.5 -147.5t35.5 -171q0 -92 -38.5 -177t-110.5 -154t-189 -110.5t-262 -41.5q-258 0 -442 32zM500 276q45 -10 78 -10q117 0 181 59.5t64 139.5q0 74 -56 128t-155 54h-112v-371zM1389 0v1475h346v-1475h-346z " />
<glyph unicode="&#x42c;" horiz-adv-x="1232" d="M154 12v1463h346v-549h143q133 0 240.5 -39.5t174.5 -105t102.5 -147.5t35.5 -171q0 -92 -38.5 -177t-110.5 -154t-189 -110.5t-262 -41.5q-258 0 -442 32zM500 276q45 -10 78 -10q117 0 181 59.5t64 139.5q0 74 -56 128t-155 54h-112v-371z" />
<glyph unicode="&#x42d;" horiz-adv-x="1255" d="M20 115l103 245q158 -94 309 -94q154 0 246.5 96t118.5 256h-568v279h562q-32 144 -126 227.5t-247 83.5q-155 0 -293 -57l-43 291q135 53 309 53q185 0 334 -58t247 -161.5t150 -245t52 -309.5q0 -343 -187.5 -542t-503.5 -199q-134 0 -255.5 36t-207.5 99z" />
<glyph unicode="&#x42e;" horiz-adv-x="2179" d="M154 0v1475h346v-603h245q17 136 67 247.5t133 196.5t207 132t280 47q159 0 286 -57t209 -158t125 -236.5t43 -295.5q0 -227 -82 -400.5t-237.5 -270.5t-364.5 -97q-292 0 -463 165.5t-203 448.5h-245v-594h-346zM1104 748q0 -134 38.5 -242.5t114 -174t175.5 -65.5 q79 0 137.5 36.5t92.5 101t50.5 145.5t16.5 178q0 104 -18 189.5t-55.5 152t-100.5 103t-146 36.5q-68 0 -122 -28t-87.5 -73t-55.5 -106.5t-31 -123.5t-9 -129z" />
<glyph unicode="&#x42f;" horiz-adv-x="1316" d="M51 0l131 469q37 133 89 204t151 91q-117 40 -197 133t-80 219q0 89 32.5 157t85.5 109.5t131 67.5t159.5 35.5t179.5 9.5q114 0 235.5 -12.5t194.5 -30.5v-1452h-346v594h-74q-54 0 -93 -14.5t-65 -45t-42.5 -66t-30.5 -87.5l-102 -381h-359zM512 1063 q0 -90 66.5 -140.5t156.5 -50.5h82v328q-54 8 -94 8q-211 0 -211 -145z" />
<glyph unicode="&#x430;" d="M53 246q0 81 33.5 145.5t88 106.5t131 71.5t155 44t168.5 19.5v29q0 100 -137 100q-68 0 -161.5 -21t-158.5 -51l-27 242q77 31 181 51.5t194 20.5q200 0 305.5 -57.5t130.5 -203.5q11 -61 11 -112v-631h-303v35q0 52 22 121l-8 4q-89 -180 -338 -180q-125 0 -206 76 t-81 190zM387 285q0 -34 21 -54t53 -20q73 0 124.5 66.5t51.5 140.5v18q-111 -3 -180.5 -42.5t-69.5 -108.5z" />
<glyph unicode="&#x431;" horiz-adv-x="1159" d="M82 635q0 100 7 180.5t26.5 163.5t51.5 147t84.5 123.5t124 102t171 73.5t223.5 45l215 25l21 -272l-269 -39q-87 -12 -148 -36.5t-97.5 -60.5t-55.5 -77t-28 -95q120 89 254 89q89 0 165 -28t138 -84.5t97.5 -154t35.5 -225.5q0 -256 -139 -394t-373 -138 q-118 0 -207 34.5t-144.5 92.5t-90.5 144t-48.5 178.5t-13.5 205.5zM399 641q0 -205 42.5 -298t160.5 -93q148 0 148 217q0 51 -3.5 88t-14 72.5t-28.5 57.5t-47.5 35t-70.5 13q-107 0 -187 -76v-16z" />
<glyph unicode="&#x432;" horiz-adv-x="1067" d="M113 -6v973q173 37 358 37q98 0 180 -12.5t154.5 -40.5t114 -80.5t41.5 -125.5q0 -77 -52.5 -129.5t-117.5 -76.5l-3 -7q218 -47 218 -223q0 -68 -23.5 -121t-67 -88.5t-96.5 -59.5t-121.5 -37t-132.5 -18t-139 -5q-54 0 -110 2.5t-120 6.5t-83 5zM442 215q25 -2 72 -2 q57 0 102.5 23t45.5 63q0 46 -35.5 70t-94.5 24q-57 0 -90 -8v-170zM442 608h62q52 0 81 25t29 67q0 76 -102 76q-31 0 -70 -6v-162z" />
<glyph unicode="&#x433;" horiz-adv-x="792" d="M113 0v983h669v-258h-340v-725h-329z" />
<glyph unicode="&#x434;" horiz-adv-x="1265" d="M10 -246v504h129q25 0 43 9t28.5 22t17 40.5t9.5 51.5t7 68l30 534h842v-725h139v-504h-268v246h-708v-246h-269zM500 258h286v467h-196l-17 -256q-5 -74 -19.5 -122.5t-53.5 -88.5z" />
<glyph unicode="&#x435;" horiz-adv-x="1073" d="M61 477q0 244 145 385.5t378 141.5q191 0 305.5 -109.5t114.5 -290.5q0 -99 -19 -215h-590q6 -81 69.5 -126.5t162.5 -45.5q65 0 142.5 17.5t131.5 46.5l82 -209q-67 -36 -171.5 -64t-215.5 -28q-119 0 -215.5 30t-168.5 89.5t-111.5 156t-39.5 221.5zM395 608h291 q8 72 -26.5 119t-104.5 47q-71 0 -113 -49t-47 -117z" />
<glyph unicode="&#x436;" horiz-adv-x="1574" d="M-23 944q120 60 213 60q160 0 252 -146l181 -280v426h329v-426l178 280q92 146 252 146q95 0 215 -60l-51 -211q-38 27 -69 27q-63 0 -136 -117l-77 -117l319 -526h-366l-265 453v-453h-329v453l-267 -453h-364l319 526l-78 117q-73 117 -135 117q-32 0 -69 -27z" />
<glyph unicode="&#x437;" horiz-adv-x="974" d="M35 37l43 223q184 -57 330 -57q176 0 176 98q0 16 -3.5 28t-17 25t-37 21.5t-65.5 14t-101 5.5h-129v213h125q189 0 189 105q0 67 -139 67q-82 0 -185.5 -21.5t-144.5 -39.5l-23 217q60 30 164.5 49t216.5 19q87 0 163.5 -13t142 -40.5t103.5 -77t38 -115.5 q0 -75 -52 -136.5t-122 -82.5q99 -20 152.5 -80.5t53.5 -149.5q0 -59 -21.5 -108.5t-60.5 -84.5t-89.5 -62t-111.5 -43t-124.5 -23.5t-130.5 -7.5q-203 0 -340 57z" />
<glyph unicode="&#x438;" horiz-adv-x="1189" d="M113 0v983h288v-561l330 561h346v-983h-289v555l-325 -555h-350z" />
<glyph unicode="&#x439;" horiz-adv-x="1189" d="M113 0v983h288v-561l330 561h346v-983h-289v555l-325 -555h-350zM254 1460h225q5 -62 33.5 -103.5t83.5 -41.5q97 0 115 145h225q-12 -169 -106.5 -268.5t-254.5 -99.5q-147 0 -230 101.5t-91 266.5z" />
<glyph unicode="&#x43a;" d="M113 0v983h329v-405l181 280q89 146 249 146q95 0 215 -60l-51 -211q-37 27 -69 27q-63 0 -136 -117l-77 -117l319 -526h-364l-267 453v-453h-329z" />
<glyph unicode="&#x43b;" horiz-adv-x="1193" d="M-14 0l39 262q37 -12 86 -12q52 0 71.5 48t26.5 151l29 534h843v-983h-329v725h-197l-16 -256q-8 -135 -42.5 -231t-94 -152t-135.5 -81t-175 -25q-66 0 -106 20z" />
<glyph unicode="&#x43c;" horiz-adv-x="1359" d="M51 0l96 983h388l145 -549l145 549h385l97 -983h-293l-29 623l-149 -582h-314l-149 582l-29 -623h-293z" />
<glyph unicode="&#x43d;" horiz-adv-x="1193" d="M113 0v983h329v-346h310v346h329v-983h-329v379h-310v-379h-329z" />
<glyph unicode="&#x43e;" horiz-adv-x="1132" d="M61 467q0 245 137.5 391t379.5 146q123 0 218.5 -38t154.5 -105.5t89.5 -155.5t30.5 -193q0 -256 -139 -394t-371 -138q-105 0 -194 29.5t-158.5 87.5t-108.5 153t-39 217zM408 512q0 -262 170 -262q147 0 147 217q0 51 -3.5 88t-14 72.5t-28.5 57.5t-47.5 35t-70.5 13 q-74 0 -113.5 -63t-39.5 -158z" />
<glyph unicode="&#x43f;" horiz-adv-x="1173" d="M113 0v983h948v-983h-330v725h-289v-725h-329z" />
<glyph unicode="&#x440;" horiz-adv-x="1138" d="M113 -471v1454h331v-98q41 57 105 88t139 31q105 0 182 -38.5t121 -106.5t65 -151.5t21 -183.5q0 -255 -147 -399.5t-385 -144.5q-21 0 -103 8v-459h-329zM442 268q52 -18 123 -18q76 0 120 64t44 169q0 52 -5 92t-17.5 78t-39 59t-65.5 21q-76 0 -118 -62.5t-42 -166.5 v-236z" />
<glyph unicode="&#x441;" horiz-adv-x="897" d="M61 461q0 245 157 394t409 149q98 0 209 -35l-52 -273q-101 37 -176 37q-94 0 -147 -66t-53 -165q0 -116 56 -184t163 -68q92 0 166 35l69 -228q-47 -33 -127.5 -55t-167.5 -22q-231 0 -368.5 127t-137.5 354z" />
<glyph unicode="&#x442;" horiz-adv-x="804" d="M10 725v258h785v-258h-230v-725h-329v725h-226z" />
<glyph unicode="&#x443;" horiz-adv-x="1046" d="M-16 983h356l199 -598l219 598h305l-559 -1454h-275l154 422z" />
<glyph unicode="&#x444;" horiz-adv-x="1525" d="M61 492q0 228 153.5 370t385.5 142v491h330v-491q148 0 269.5 -62.5t193 -180.5t71.5 -269q0 -228 -149.5 -370t-384.5 -142v-451h-330v451q-237 0 -388 142t-151 370zM406 483q0 -106 46 -169.5t148 -63.5v483q-102 0 -148 -67.5t-46 -182.5zM930 250q98 0 143 64.5 t45 168.5q0 113 -45.5 181.5t-142.5 68.5v-483z" />
<glyph unicode="&#x445;" horiz-adv-x="997" d="M-31 0l350 508l-319 475h367l159 -233l152 233h319l-319 -463l350 -520h-366l-189 279l-184 -279h-320z" />
<glyph unicode="&#x446;" horiz-adv-x="1218" d="M113 0v983h329v-725h289v725h330v-725h147v-504h-268v246h-827z" />
<glyph unicode="&#x447;" horiz-adv-x="1132" d="M80 721v262h330v-219q0 -94 45 -139t112 -45q74 0 121 38v365h332v-983h-332v395q-100 -69 -231 -69q-74 0 -140.5 24.5t-120 72t-85 124.5t-31.5 174z" />
<glyph unicode="&#x448;" horiz-adv-x="1542" d="M113 0v983h329v-725h164v725h330v-725h162v725h332v-983h-1317z" />
<glyph unicode="&#x449;" horiz-adv-x="1587" d="M113 0v983h329v-725h164v725h330v-725h162v725h332v-725h145v-504h-268v246h-1194z" />
<glyph unicode="&#x44a;" horiz-adv-x="1161" d="M10 725v258h555v-307h172q183 0 287 -96.5t104 -243.5q0 -356 -569 -356q-139 0 -323 24v721h-226zM565 217q30 -6 53 -6q80 0 122 34t42 89q0 50 -37 84.5t-104 34.5h-76v-236z" />
<glyph unicode="&#x44b;" horiz-adv-x="1562" d="M113 4v979h329v-307h172q183 0 287.5 -96.5t104.5 -243.5q0 -356 -570 -356q-139 0 -323 24zM442 217q27 -6 52 -6q81 0 123 35t42 88q0 50 -37 84.5t-104 34.5h-76v-236zM1120 0v983h330v-983h-330z" />
<glyph unicode="&#x44c;" horiz-adv-x="983" d="M57 4v979h332v-307h170q183 0 287 -96.5t104 -243.5q0 -356 -569 -356q-140 0 -324 24zM389 217q27 -6 49 -6q81 0 123.5 35t42.5 88q0 50 -36.5 84.5t-102.5 34.5h-76v-236z" />
<glyph unicode="&#x44d;" horiz-adv-x="897" d="M25 35l69 215q92 -35 219 -35q98 0 154.5 51.5t64.5 132.5h-401v205h397q-14 99 -73 139.5t-154 40.5q-100 0 -197 -47l-38 213q123 54 276 54q223 0 358.5 -137.5t135.5 -379.5q0 -162 -76 -278.5t-199.5 -172.5t-279.5 -56q-151 0 -256 55z" />
<glyph unicode="&#x44e;" horiz-adv-x="1689" d="M113 0v983h329v-387h185q36 190 167.5 299t338.5 109q123 0 219 -38t155.5 -105.5t90 -155.5t30.5 -193q0 -256 -139 -394t-373 -138q-187 0 -318.5 90t-168.5 268h-187v-338h-329zM963 512q0 -262 170 -262q149 0 149 217q0 64 -6.5 108.5t-24 82t-51 56.5t-84.5 19 q-73 0 -113 -63t-40 -158z" />
<glyph unicode="&#x44f;" horiz-adv-x="1056" d="M31 0l86 311q26 90 63.5 140.5t106.5 62.5q-82 33 -135.5 91t-53.5 140q0 259 480 259q84 0 203 -12.5t163 -24.5v-967h-330v373h-43q-61 0 -90.5 -30t-44.5 -89l-65 -254h-340zM444 696q0 -52 37 -74t90 -22h43v172q-8 0 -23 1t-24 1q-123 0 -123 -78z" />
<glyph unicode="&#x451;" horiz-adv-x="1073" d="M61 477q0 244 145 385.5t378 141.5q191 0 305.5 -109.5t114.5 -290.5q0 -99 -19 -215h-590q6 -81 69.5 -126.5t162.5 -45.5q65 0 142.5 17.5t131.5 46.5l82 -209q-67 -36 -171.5 -64t-215.5 -28q-119 0 -215.5 30t-168.5 89.5t-111.5 156t-39.5 221.5zM168 1284 q0 72 47.5 120t124.5 48t123.5 -46t46.5 -122q0 -75 -47.5 -120.5t-122.5 -45.5q-73 0 -122.5 45.5t-49.5 120.5zM395 608h291q8 72 -26.5 119t-104.5 47q-71 0 -113 -49t-47 -117zM614 1284q0 72 46 120t124 48q75 0 124.5 -46.5t49.5 -121.5q0 -74 -50 -120t-124 -46 q-72 0 -121 45.5t-49 120.5z" />
<glyph unicode="&#x452;" horiz-adv-x="1245" d="M2 1163v228h195v104h329v-104h283v-228h-283v-260q46 49 122.5 75t148.5 26q101 0 170 -26t108 -80.5t55.5 -129t16.5 -180.5v-549q0 -248 -111.5 -379t-335.5 -131q-75 0 -137 27l39 262q62 -19 119 -19q53 0 74.5 50.5t21.5 148.5v532q0 104 -25 153.5t-96 49.5 q-83 0 -126.5 -68.5t-43.5 -177.5v-487h-329v1163h-195z" />
<glyph unicode="&#x453;" horiz-adv-x="792" d="M113 0v983h669v-258h-340v-725h-329zM264 1159l258 336l256 -115l-309 -288z" />
<glyph unicode="&#x454;" horiz-adv-x="897" d="M61 461q0 249 139 396t386 147q56 0 131.5 -10.5t118.5 -24.5l-45 -232q-33 17 -88 32t-109 15q-95 0 -154 -40.5t-73 -139.5h397v-205h-402q10 -79 76.5 -131.5t200.5 -52.5q90 0 164 35l59 -193q-47 -33 -127.5 -55t-167.5 -22q-231 0 -368.5 127t-137.5 354z" />
<glyph unicode="&#x455;" horiz-adv-x="888" d="M66 662q0 87 34.5 154t95.5 107.5t138.5 60.5t169.5 20q110 0 268 -43l-35 -263q-56 26 -132.5 43t-129.5 17q-98 0 -98 -58q0 -23 33.5 -41.5t83.5 -31t108 -35t108 -51t83.5 -83t33.5 -126.5q0 -76 -23.5 -136t-64.5 -100t-99 -66.5t-124.5 -38t-144.5 -11.5t-165 15 t-130 36l37 260q57 -26 137.5 -45t146.5 -19q47 0 83 16.5t36 49.5q0 24 -33.5 43.5t-83.5 33t-108 37t-108 52.5t-83.5 81.5t-33.5 121.5z" />
<glyph unicode="&#x456;" horiz-adv-x="557" d="M84 1296q0 80 52.5 134.5t139.5 54.5q85 0 140 -52t55 -137t-55 -135.5t-140 -50.5q-82 0 -137 50.5t-55 135.5zM113 0v983h329v-983h-329z" />
<glyph unicode="&#x457;" horiz-adv-x="555" d="M-117 1284q0 72 47.5 120t122.5 48q77 0 124.5 -46t47.5 -122q0 -74 -48 -120t-124 -46q-71 0 -120.5 46t-49.5 120zM113 0v983h329v-983h-329zM328 1284q0 73 47 120.5t127 47.5q74 0 123 -46.5t49 -121.5q0 -73 -50 -119.5t-122 -46.5q-75 0 -124.5 45.5t-49.5 120.5z " />
<glyph unicode="&#x458;" horiz-adv-x="546" d="M-141 -444l37 262q65 -19 120 -19q53 0 75 50.5t22 148.5v985h329v-944q0 -248 -111 -379t-335 -131q-75 0 -137 27zM84 1296q0 80 52.5 134.5t139.5 54.5q85 0 140 -52t55 -137t-55 -135.5t-140 -50.5q-82 0 -137 50.5t-55 135.5z" />
<glyph unicode="&#x459;" horiz-adv-x="1705" d="M-14 0l39 262q37 -12 86 -12q52 0 71.5 47.5t26.5 151.5l29 534h874v-307h135q115 0 200.5 -26t134 -72t71 -101.5t22.5 -122.5q0 -374 -571 -374q-138 0 -322 24v721h-227l-16 -256q-8 -135 -42.5 -231t-93.5 -152t-135 -81t-176 -25q-66 0 -106 20zM1112 217 q27 -6 51 -6q166 0 166 123q0 50 -37.5 84.5t-103.5 34.5h-76v-236z" />
<glyph unicode="&#x45a;" horiz-adv-x="1677" d="M113 0v983h329v-346h310v346h329v-307h172q183 0 287.5 -96.5t104.5 -243.5q0 -84 -33 -148t-86.5 -102.5t-130 -63t-153.5 -33.5t-167 -9q-139 0 -323 24v375h-310v-379h-329zM1081 217q27 -6 52 -6q79 0 122 35t43 88q0 50 -37 84.5t-104 34.5h-76v-236z" />
<glyph unicode="&#x45b;" horiz-adv-x="1243" d="M0 1163v228h195v104h329v-104h283v-228h-283v-260q46 49 122.5 75t148.5 26q101 0 170 -26t108 -80.5t55.5 -129t16.5 -180.5v-588h-330v530q0 104 -25 153.5t-96 49.5q-83 0 -126.5 -68.5t-43.5 -177.5v-487h-329v1163h-195z" />
<glyph unicode="&#x45c;" d="M113 0v983h329v-405l181 280q89 146 249 146q95 0 215 -60l-51 -211q-37 27 -69 27q-63 0 -136 -117l-77 -117l319 -526h-364l-267 453v-453h-329zM397 1159l258 336l256 -115l-309 -288z" />
<glyph unicode="&#x45e;" horiz-adv-x="1046" d="M-16 983h356l199 -598l219 598h305l-559 -1454q-46 0 -138 -1t-137 -1l154 424zM209 1460h225q5 -62 32.5 -103.5t82.5 -41.5q99 0 117 145h225q-12 -169 -107 -268.5t-256 -99.5q-146 0 -229.5 102t-89.5 266z" />
<glyph unicode="&#x45f;" horiz-adv-x="1173" d="M113 0v983h329v-725h289v725h330v-983h-340v-246h-268v246h-340z" />
<glyph unicode="&#x2000;" horiz-adv-x="973" />
<glyph unicode="&#x2001;" horiz-adv-x="1946" />
<glyph unicode="&#x2002;" horiz-adv-x="973" />
<glyph unicode="&#x2003;" horiz-adv-x="1946" />
<glyph unicode="&#x2004;" horiz-adv-x="648" />
<glyph unicode="&#x2005;" horiz-adv-x="486" />
<glyph unicode="&#x2006;" horiz-adv-x="324" />
<glyph unicode="&#x2007;" horiz-adv-x="324" />
<glyph unicode="&#x2008;" horiz-adv-x="243" />
<glyph unicode="&#x2009;" horiz-adv-x="389" />
<glyph unicode="&#x200a;" horiz-adv-x="108" />
<glyph unicode="&#x2010;" horiz-adv-x="757" d="M82 459v225h594v-225h-594z" />
<glyph unicode="&#x2011;" horiz-adv-x="757" d="M82 459v225h594v-225h-594z" />
<glyph unicode="&#x2012;" horiz-adv-x="757" d="M82 459v225h594v-225h-594z" />
<glyph unicode="&#x2013;" horiz-adv-x="1126" d="M102 418v225h922v-225h-922z" />
<glyph unicode="&#x2014;" horiz-adv-x="1802" d="M20 418v225h1762v-225h-1762z" />
<glyph unicode="&#x2018;" horiz-adv-x="552" d="M82 913l194 572h236l-135 -572h-295z" />
<glyph unicode="&#x2019;" horiz-adv-x="552" d="M82 913l135 572h295l-195 -572h-235z" />
<glyph unicode="&#x201a;" horiz-adv-x="534" d="M51 -332l135 572h297l-196 -572h-236z" />
<glyph unicode="&#x201c;" horiz-adv-x="978" d="M51 913l197 572h235l-137 -572h-295zM498 913l194 572h236l-135 -572h-295z" />
<glyph unicode="&#x201d;" horiz-adv-x="978" d="M51 913l135 572h295l-194 -572h-236zM496 913l137 572h295l-197 -572h-235z" />
<glyph unicode="&#x201e;" horiz-adv-x="978" d="M51 -332l135 572h297l-196 -572h-236zM498 -334l135 572h295l-197 -572h-233z" />
<glyph unicode="&#x2022;" horiz-adv-x="737" d="M51 727q0 132 93 224.5t225 92.5t224.5 -92.5t92.5 -224.5t-92.5 -224.5t-224.5 -92.5t-225 92.5t-93 224.5z" />
<glyph unicode="&#x2026;" horiz-adv-x="1740" d="M82 174q0 80 57.5 137.5t136.5 57.5t136 -57.5t57 -137.5t-57 -137t-136 -57q-80 0 -137 57t-57 137zM676 174q0 80 57.5 137.5t136.5 57.5t136 -57.5t57 -137.5t-57 -137t-136 -57q-80 0 -137 57t-57 137zM1270 174q0 80 57.5 137.5t136.5 57.5t136 -57.5t57 -137.5 t-57 -137t-136 -57q-80 0 -137 57t-57 137z" />
<glyph unicode="&#x202f;" horiz-adv-x="389" />
<glyph unicode="&#x2039;" horiz-adv-x="587" d="M51 573l246 422l215 -61l-164 -361l168 -348l-219 -71z" />
<glyph unicode="&#x203a;" horiz-adv-x="587" d="M72 924l219 71l246 -420l-246 -421l-213 61l162 360z" />
<glyph unicode="&#x205f;" horiz-adv-x="486" />
<glyph unicode="&#x20ac;" horiz-adv-x="1468" d="M51 483l41 189h199v49q0 59 2 88h-187l41 188h183q69 231 251.5 364.5t452.5 133.5q231 0 355 -57l-58 -291q-152 61 -323 61q-102 0 -187.5 -54t-120.5 -157h574l-41 -188h-574q-2 -23 -2 -68q0 -40 5 -69h546l-41 -189h-471q78 -217 316 -217q146 0 299 78l106 -246 q-112 -61 -214 -89.5t-242 -28.5q-235 0 -408 133.5t-234 369.5h-268z" />
<glyph unicode="&#x2122;" horiz-adv-x="1675" d="M0 1292v183h596v-183h-190v-561h-216v561h-190zM631 731l67 744h260l156 -488l156 488h264l61 -744h-202l-19 516l-166 -483h-217l-139 483l-31 -516h-190z" />
<glyph unicode="&#x25fc;" horiz-adv-x="983" d="M0 0v983h983v-983h-983z" />
</font>
</defs>
</svg>
